<?xml version="1.0" standalone="no"?>
<!DOCTYPE svg PUBLIC "-//W3C//DTD SVG 20010904//EN"
 "http://www.w3.org/TR/2001/REC-SVG-20010904/DTD/svg10.dtd">
<svg version="1.0" xmlns="http://www.w3.org/2000/svg"
 width="1443.000000pt" height="1444.000000pt" viewBox="0 0 1443.000000 1444.000000"
 preserveAspectRatio="xMidYMid meet">

<g transform="translate(0.000000,1444.000000) scale(0.100000,-0.100000)"
fill="#000000" stroke="none">
<path d="M6645 14434 c-5 -2 -59 -8 -120 -13 -190 -18 -309 -32 -346 -42 l-36
-9 -6 -113 c-5 -113 -13 -146 -55 -227 -67 -128 -197 -235 -329 -273 -57 -16
-232 -20 -278 -7 -180 51 -334 195 -389 363 -5 15 -12 17 -38 12 -18 -4 -39
-11 -48 -15 -8 -5 -37 -15 -65 -23 -56 -17 -220 -74 -250 -87 -11 -5 -41 -16
-67 -26 -53 -18 -52 -18 -38 -44 5 -10 16 -55 24 -101 55 -322 -203 -630 -529
-629 -150 1 -281 56 -387 162 -38 37 -68 72 -68 77 0 5 -7 17 -16 26 -15 14
-19 14 -48 -4 -17 -11 -43 -26 -57 -33 -47 -25 -317 -199 -338 -219 l-21 -20
25 -39 c66 -105 91 -264 60 -395 -10 -42 -22 -78 -27 -81 -4 -3 -8 -12 -8 -20
0 -26 -76 -128 -133 -181 -126 -115 -321 -165 -487 -124 -70 18 -169 70 -232
122 l-48 41 -49 -41 c-63 -53 -321 -319 -321 -332 0 -5 20 -34 45 -65 93 -114
120 -192 120 -349 0 -118 -3 -135 -43 -225 -53 -122 -187 -243 -312 -284 -67
-21 -136 -36 -173 -36 -73 0 -221 42 -284 81 -25 16 -37 18 -47 10 -7 -6 -43
-59 -81 -118 -37 -60 -81 -127 -96 -150 -16 -23 -29 -44 -29 -48 0 -3 -16 -32
-36 -63 l-37 -57 34 -25 c110 -82 184 -179 226 -297 22 -62 25 -261 4 -313
-56 -144 -103 -210 -211 -293 -120 -92 -323 -121 -488 -69 -32 11 -33 10 -49
-26 -25 -58 -31 -73 -49 -127 -9 -27 -38 -113 -64 -190 -26 -76 -46 -144 -44
-150 2 -5 23 -16 45 -23 121 -38 257 -174 307 -307 54 -142 54 -249 2 -394
-43 -116 -146 -228 -260 -283 -107 -51 -134 -58 -242 -58 l-96 0 -6 -27 c-11
-52 -48 -399 -50 -468 -1 -38 1 -40 29 -43 69 -6 154 -36 225 -80 115 -71 215
-207 244 -332 12 -53 13 -188 2 -245 -21 -100 -106 -235 -193 -306 -72 -57
-189 -109 -248 -109 -59 0 -67 -15 -56 -105 6 -44 15 -125 21 -180 16 -139 30
-236 36 -246 3 -5 42 -9 87 -9 152 0 280 -53 388 -160 66 -66 128 -169 144
-240 14 -64 17 -224 5 -265 -27 -95 -83 -189 -154 -260 -62 -62 -160 -125
-193 -125 -6 0 -16 -6 -22 -14 -11 -13 3 -77 30 -141 4 -11 24 -67 44 -125 55
-158 87 -240 95 -240 4 0 27 7 51 16 24 8 80 18 124 21 134 9 257 -30 366
-114 71 -55 112 -107 154 -191 44 -92 59 -163 53 -263 -10 -158 -62 -266 -185
-378 -36 -34 -70 -61 -74 -61 -17 0 -9 -38 16 -74 14 -20 25 -39 25 -41 0 -7
201 -319 215 -333 10 -11 22 -9 66 15 76 40 114 52 195 63 172 22 328 -32 454
-159 102 -103 153 -227 154 -376 0 -50 -5 -111 -13 -135 -23 -77 -74 -173
-118 -223 -24 -26 -43 -51 -43 -54 0 -10 364 -373 374 -373 4 0 30 20 57 44
55 49 167 107 242 125 61 14 163 14 224 0 151 -36 309 -159 370 -289 83 -174
82 -322 -2 -491 -31 -63 -33 -81 -10 -90 6 -2 63 -39 128 -82 64 -42 119 -77
122 -77 3 0 35 -20 73 -44 96 -61 108 -64 126 -27 9 16 43 57 77 91 96 97 248
160 382 160 264 -2 483 -191 533 -461 14 -78 14 -92 -1 -165 -9 -43 -19 -91
-22 -106 -4 -21 -1 -29 13 -34 11 -3 28 -10 39 -14 121 -50 437 -152 445 -143
4 4 15 28 24 53 54 142 186 262 345 315 71 23 236 24 306 1 130 -43 232 -119
301 -226 65 -99 84 -165 84 -292 l0 -96 28 -6 c15 -2 72 -10 127 -16 55 -6
130 -15 168 -20 37 -6 94 -10 126 -10 l58 0 13 63 c52 249 244 423 488 443
105 8 189 -8 286 -55 124 -60 199 -144 276 -311 4 -9 11 -38 14 -66 11 -77 11
-77 112 -70 154 11 409 42 425 51 5 4 7 26 3 55 -6 45 8 156 25 205 47 130
144 247 258 310 90 50 133 60 258 60 124 0 167 -10 255 -58 78 -42 174 -130
204 -187 7 -14 20 -38 29 -55 9 -16 22 -44 28 -61 l12 -30 186 64 c102 35 196
66 209 69 12 3 25 9 28 14 3 5 13 9 22 9 26 0 64 29 55 43 -31 47 -44 240 -22
321 18 69 77 181 121 230 65 75 161 134 268 167 74 23 232 17 310 -11 112 -40
196 -101 262 -191 23 -33 46 -59 50 -59 8 0 148 86 215 131 23 16 44 29 48 29
3 0 46 28 95 61 l88 62 -33 66 c-50 99 -60 144 -59 261 1 161 43 260 157 374
94 93 179 136 310 155 153 22 312 -30 441 -143 16 -14 34 -26 39 -26 14 0 367
356 367 371 0 6 -20 33 -44 60 -96 107 -152 293 -127 421 28 138 68 216 160
309 111 112 224 159 378 159 101 0 216 -30 274 -70 15 -11 33 -20 41 -20 11 1
235 339 247 374 2 6 12 23 22 38 11 14 19 29 19 32 0 3 -19 18 -42 35 -179
124 -265 323 -231 536 40 257 272 455 533 455 60 0 102 -8 198 -36 18 -5 22
-2 22 14 0 12 4 23 9 26 5 3 11 16 14 28 2 13 21 68 41 123 58 158 96 275 96
294 0 10 -10 22 -22 28 -100 46 -147 75 -195 122 -322 314 -167 833 277 926
41 9 99 14 129 13 l55 -3 8 35 c11 42 40 302 51 449 2 39 -5 45 -85 59 -97 18
-185 67 -263 146 -152 154 -201 355 -135 555 56 169 213 310 395 356 32 8 66
15 75 15 14 0 15 12 8 93 -8 95 -19 186 -40 345 l-12 92 -97 0 c-80 0 -111 5
-170 26 -168 61 -282 175 -343 343 -51 142 -28 335 56 460 66 99 166 182 254
212 21 7 43 16 48 20 7 6 -29 135 -54 194 -15 35 -72 199 -77 223 -3 12 -9 25
-14 28 -5 3 -9 13 -9 23 0 34 -24 43 -66 24 -30 -13 -67 -17 -164 -16 -110 0
-133 4 -187 26 -219 89 -353 280 -353 502 0 187 77 337 233 452 l47 35 -21 36
c-43 73 -232 368 -253 395 -12 16 -18 15 -82 -17 -130 -65 -246 -80 -366 -50
-194 50 -340 182 -404 369 -21 61 -23 241 -4 300 27 85 66 159 111 208 38 42
45 56 37 70 -9 17 -250 263 -330 336 l-36 33 -34 -32 c-50 -48 -125 -94 -198
-121 -54 -20 -84 -24 -180 -24 -73 0 -128 5 -150 14 -150 58 -232 121 -303
232 -56 88 -81 177 -81 289 0 105 16 170 64 261 27 53 28 58 12 71 -19 17
-271 178 -278 178 -2 0 -36 20 -75 46 -39 25 -75 44 -79 42 -5 -2 -29 -31 -54
-65 -62 -85 -147 -145 -276 -195 -52 -20 -252 -17 -313 5 -94 33 -153 71 -222
141 -110 111 -155 220 -155 382 0 63 6 109 19 148 l19 57 -37 16 c-57 25 -71
30 -156 58 -44 14 -88 31 -97 36 -10 5 -26 9 -36 9 -10 0 -22 4 -28 8 -5 5
-29 14 -54 21 -25 7 -56 17 -69 22 -13 6 -25 8 -26 7 -2 -2 -20 -39 -41 -83
-111 -231 -376 -361 -611 -300 -183 47 -318 171 -394 360 -15 40 -31 154 -27
206 3 51 2 53 -27 60 -32 8 -154 23 -325 39 -58 6 -114 12 -125 13 -17 2 -22
-8 -34 -58 -30 -132 -93 -246 -174 -314 -16 -14 -35 -30 -42 -37 -18 -18 -131
-75 -174 -87 -48 -14 -246 -14 -295 0 -45 13 -144 64 -177 90 -109 87 -181
204 -209 341 -13 64 -17 72 -35 66z m129 -699 c23 -23 37 -48 41 -72 29 -195
96 -296 241 -367 53 -26 69 -29 159 -29 89 0 107 3 160 28 120 57 214 184 229
309 14 128 56 166 180 166 44 0 107 -4 140 -9 34 -5 120 -17 191 -26 179 -23
243 -39 276 -71 45 -44 54 -75 40 -153 -30 -165 66 -341 227 -418 51 -24 68
-27 162 -27 93 0 111 3 160 26 103 49 177 131 215 238 18 51 67 99 104 102 63
4 141 -17 296 -82 11 -4 39 -15 62 -24 23 -8 64 -25 90 -37 26 -11 57 -25 68
-29 170 -72 191 -86 221 -147 19 -38 16 -62 -20 -158 -75 -203 27 -429 229
-504 104 -39 255 -25 337 31 14 10 29 18 32 18 9 0 57 49 100 102 60 75 115
94 179 62 25 -13 191 -129 252 -176 6 -5 46 -36 90 -70 44 -34 82 -64 85 -67
3 -4 21 -18 40 -32 124 -93 140 -162 61 -267 -60 -79 -81 -146 -81 -254 0 -83
3 -97 35 -163 84 -176 277 -263 462 -209 30 9 91 40 135 70 84 57 128 67 182
43 38 -18 255 -283 409 -500 41 -59 47 -73 47 -119 l0 -52 -89 -86 c-120 -118
-144 -169 -145 -307 0 -91 3 -106 31 -165 67 -142 204 -230 357 -230 61 0 99
9 173 42 58 25 112 23 153 -4 33 -22 60 -67 109 -178 13 -30 37 -84 54 -120
66 -147 147 -364 147 -396 0 -25 -25 -77 -44 -93 -7 -6 -49 -29 -93 -50 -170
-83 -267 -258 -233 -424 7 -34 24 -85 38 -114 30 -62 119 -151 182 -180 64
-30 164 -43 230 -31 93 17 151 -7 183 -74 30 -63 79 -390 93 -619 l6 -106 -38
-40 c-30 -32 -49 -42 -84 -47 -64 -9 -133 -27 -144 -37 -6 -5 -16 -9 -23 -9
-32 0 -152 -121 -183 -185 -22 -44 -25 -63 -25 -165 0 -108 2 -119 30 -174 60
-119 192 -215 297 -217 89 -1 161 -50 172 -117 11 -60 -32 -456 -67 -634 -17
-84 -34 -110 -92 -137 -39 -18 -52 -20 -83 -11 -119 33 -270 -13 -364 -111
-55 -56 -84 -109 -104 -186 -19 -75 -18 -129 7 -204 27 -82 48 -116 107 -172
42 -38 144 -97 170 -97 11 0 57 -50 71 -77 22 -44 17 -67 -62 -276 -15 -37
-33 -82 -40 -100 -8 -17 -25 -57 -37 -87 -108 -262 -133 -295 -231 -295 -31 1
-63 6 -70 12 -20 16 -130 43 -177 43 -59 0 -160 -34 -220 -75 -128 -87 -195
-258 -158 -406 25 -98 54 -146 134 -218 40 -36 80 -78 88 -93 19 -37 18 -93
-3 -126 -18 -27 -158 -224 -179 -252 -139 -177 -223 -276 -248 -291 -45 -27
-103 -25 -151 8 -22 14 -42 29 -45 32 -17 20 -115 61 -172 72 -144 27 -306
-44 -390 -173 -49 -75 -63 -129 -62 -228 2 -99 19 -147 89 -244 37 -53 45 -71
44 -107 0 -60 -25 -93 -144 -189 -55 -45 -107 -86 -115 -93 -8 -7 -33 -26 -55
-42 -22 -16 -42 -33 -45 -36 -23 -26 -217 -149 -244 -154 -54 -11 -101 11
-143 63 -64 80 -131 131 -204 156 -54 19 -200 21 -249 3 -85 -31 -169 -96
-211 -163 -62 -101 -78 -240 -38 -344 35 -92 40 -114 33 -145 -10 -48 -40 -81
-96 -108 -125 -60 -267 -123 -321 -143 -23 -9 -51 -20 -62 -24 -11 -4 -51 -20
-90 -35 -38 -15 -80 -31 -93 -36 -31 -12 -69 -11 -95 2 -28 14 -77 60 -77 72
0 4 -14 37 -31 73 -78 161 -266 253 -437 213 -146 -33 -251 -135 -301 -290
-14 -44 -14 -149 -1 -185 22 -56 -43 -155 -108 -167 -15 -2 -88 -14 -162 -26
-74 -11 -163 -25 -196 -31 -34 -5 -80 -10 -103 -10 -23 0 -74 -5 -112 -12
-130 -21 -189 21 -214 154 -19 102 -24 116 -60 173 -68 107 -206 185 -330 185
-99 0 -216 -52 -283 -124 -69 -77 -92 -127 -113 -255 -18 -110 -85 -153 -208
-133 -38 7 -90 12 -115 12 -24 0 -66 4 -93 10 -26 5 -104 17 -173 26 -214 29
-234 50 -235 249 -1 119 -3 135 -28 188 -61 133 -208 227 -357 227 -105 0
-197 -38 -276 -116 -47 -45 -104 -139 -104 -169 0 -15 -48 -66 -77 -83 -36
-20 -81 -15 -168 18 -11 5 -36 14 -55 20 -19 7 -51 20 -70 28 -19 8 -46 19
-60 24 -14 6 -33 14 -42 19 -10 5 -22 9 -28 9 -10 0 -74 28 -217 96 -80 37
-95 48 -113 83 -26 52 -25 69 6 144 23 53 27 77 28 169 0 72 -4 112 -12 120
-7 7 -12 18 -12 25 0 29 -71 123 -122 161 -166 125 -404 104 -533 -47 -94
-111 -98 -114 -156 -114 -48 -1 -61 4 -119 43 -64 43 -284 204 -307 225 -6 5
-50 41 -97 78 -47 38 -92 82 -101 99 -20 41 -19 97 3 129 9 15 30 46 46 70 48
71 66 134 66 226 0 82 -4 100 -44 182 -68 144 -253 233 -413 201 -70 -14 -133
-43 -193 -89 -53 -42 -96 -54 -139 -39 -36 12 -109 80 -160 148 -14 19 -34 44
-44 55 -39 42 -249 326 -264 356 -10 21 -14 47 -11 81 5 47 9 53 85 124 62 57
88 89 113 141 30 62 33 76 33 165 1 53 -4 107 -10 120 -6 13 -19 41 -29 63
-25 58 -119 146 -189 180 -54 25 -71 28 -160 28 -86 0 -108 -4 -159 -27 -119
-53 -178 -29 -243 104 -39 78 -112 246 -173 395 -34 83 -60 165 -60 190 0 42
43 101 88 121 78 34 88 39 122 64 106 76 160 186 160 324 -1 173 -105 315
-273 371 -36 12 -78 15 -172 13 l-124 -3 -34 34 c-44 41 -46 49 -86 321 -11
80 -25 175 -31 212 -5 37 -10 104 -10 149 0 73 3 86 26 116 31 40 59 53 137
63 74 10 170 57 224 111 24 22 57 71 75 107 29 58 33 78 36 163 4 89 2 100
-26 162 -37 81 -116 167 -180 198 -26 12 -87 30 -135 40 -104 21 -128 34 -151
84 -25 52 -18 160 34 520 42 289 46 294 255 292 125 -1 132 0 190 28 63 32
162 121 183 168 26 58 31 74 42 130 35 180 -75 362 -263 437 -68 27 -107 74
-107 130 0 30 30 130 59 195 5 11 26 63 46 115 36 91 49 122 96 228 46 105 65
136 99 158 45 31 93 31 166 -3 51 -22 73 -26 154 -26 81 0 103 4 153 26 126
57 204 154 234 290 16 73 16 82 -1 152 -21 89 -74 176 -137 225 -86 68 -99 87
-99 149 0 38 37 111 86 169 7 10 48 64 91 122 119 163 242 309 274 325 51 27
95 19 163 -27 33 -24 75 -49 91 -57 17 -7 38 -18 49 -23 27 -14 200 -11 244 4
123 42 212 138 253 270 23 76 24 122 4 199 -18 67 -37 106 -89 174 -30 38 -36
55 -36 93 0 28 7 58 18 74 21 32 222 198 370 305 59 43 113 83 121 91 23 22
89 52 117 52 39 0 92 -29 117 -64 47 -67 119 -129 172 -150 90 -35 179 -43
255 -23 183 50 300 200 300 386 0 66 -9 103 -42 178 -10 24 -18 54 -18 67 0
44 29 95 68 119 35 22 148 77 157 77 2 0 33 13 67 28 35 16 95 41 133 56 39
16 81 33 95 39 179 73 230 77 284 25 18 -18 45 -63 60 -100 53 -129 183 -223
325 -235 254 -21 468 207 423 451 -11 56 -10 71 3 103 37 88 59 96 385 139 69
8 148 19 175 24 28 4 94 8 147 9 l97 1 35 -35z"/>
<path d="M6585 13618 c-185 -21 -255 -30 -310 -38 -221 -32 -196 -18 -189 -98
17 -187 -78 -385 -238 -493 -100 -68 -176 -91 -298 -91 -169 -1 -267 39 -384
155 -51 50 -83 93 -105 140 -32 66 -45 76 -79 58 -9 -5 -44 -19 -77 -32 -70
-26 -103 -39 -167 -68 -26 -11 -50 -21 -52 -21 -5 0 -145 -63 -184 -83 -26
-12 -26 -9 7 -122 55 -184 2 -376 -143 -520 -81 -80 -160 -124 -273 -149 -88
-20 -119 -20 -207 -1 -107 23 -206 77 -286 157 l-70 70 -28 -17 c-29 -19 -214
-156 -222 -165 -3 -3 -48 -39 -100 -80 -52 -41 -101 -80 -108 -87 -10 -9 -4
-26 31 -80 25 -37 50 -86 57 -108 7 -22 16 -50 21 -63 13 -33 11 -219 -2 -261
-26 -83 -82 -181 -132 -233 -72 -74 -131 -113 -223 -144 -72 -24 -89 -26 -194
-22 -63 3 -128 11 -145 18 -69 29 -82 36 -133 67 -29 18 -56 33 -61 33 -4 0
-39 -39 -77 -87 -37 -49 -71 -90 -74 -93 -6 -5 -125 -165 -178 -239 l-31 -44
73 -72 c74 -73 124 -154 149 -241 14 -50 14 -248 0 -298 -46 -159 -185 -308
-338 -361 -40 -14 -151 -35 -185 -35 -47 0 -155 23 -204 44 -22 9 -40 15 -41
14 -5 -9 -45 -99 -45 -103 0 -2 -12 -30 -26 -62 -40 -87 -48 -109 -94 -228
-23 -60 -45 -120 -50 -132 -7 -18 -5 -26 13 -38 12 -8 25 -15 29 -15 4 0 33
-16 64 -36 129 -83 219 -215 250 -369 14 -68 15 -91 5 -153 -15 -87 -37 -158
-62 -194 -11 -14 -19 -31 -19 -36 0 -14 -118 -134 -152 -155 -116 -71 -186
-92 -314 -92 l-102 0 -11 -70 c-36 -214 -54 -361 -55 -453 l-1 -67 40 -7 c125
-21 216 -69 310 -163 64 -64 125 -160 125 -197 0 -8 6 -20 12 -26 21 -21 17
-256 -5 -317 -72 -199 -235 -338 -434 -370 -23 -4 -43 -12 -46 -18 -2 -7 0
-43 5 -82 4 -38 13 -108 18 -155 17 -140 47 -331 53 -337 3 -2 58 -6 123 -7
108 -3 178 -17 200 -39 4 -4 14 -7 22 -7 25 0 139 -88 184 -142 80 -97 115
-181 124 -303 13 -172 -38 -310 -159 -429 -48 -48 -94 -82 -139 -104 -66 -31
-67 -32 -57 -59 7 -16 15 -37 19 -48 39 -97 75 -187 90 -220 10 -22 24 -56 32
-75 66 -158 94 -201 112 -171 3 5 16 11 28 14 13 3 50 12 83 21 169 43 355
-13 490 -149 112 -113 157 -223 157 -380 0 -158 -45 -267 -159 -384 l-73 -73
22 -32 c32 -46 162 -220 168 -226 3 -3 24 -27 45 -55 22 -27 52 -63 67 -80 14
-16 35 -41 45 -54 l19 -24 50 36 c54 39 143 78 217 96 215 51 487 -88 584
-299 38 -82 53 -151 53 -240 0 -110 -37 -228 -96 -307 -32 -42 -30 -55 8 -84
18 -13 46 -35 62 -49 52 -43 173 -133 330 -247 l40 -29 75 76 c78 78 159 129
241 151 66 18 207 22 259 9 168 -43 310 -158 377 -305 65 -142 69 -270 11
-432 -8 -24 -11 -43 -7 -43 5 0 44 -16 87 -35 110 -50 108 -49 213 -90 52 -21
104 -41 115 -45 68 -28 116 -42 128 -37 8 3 26 30 41 61 68 139 179 232 341
287 67 23 228 18 309 -9 230 -77 382 -291 374 -527 -1 -44 1 -86 6 -93 4 -6
23 -12 41 -12 19 0 54 -4 77 -10 52 -11 273 -39 342 -42 l50 -2 21 79 c29 109
56 163 116 235 54 65 157 139 224 160 22 7 50 16 63 21 33 13 219 11 261 -2
182 -58 317 -182 378 -349 7 -19 13 -44 13 -55 1 -11 6 -36 13 -55 12 -34 13
-34 62 -32 96 5 383 43 481 64 l52 11 -1 101 c0 138 28 227 104 332 77 105
189 177 323 208 85 20 137 20 222 0 174 -40 312 -153 388 -317 16 -35 20 -38
49 -31 17 3 38 10 47 14 8 5 69 30 135 56 115 45 217 89 279 120 16 8 35 14
43 14 14 0 18 40 5 56 -36 41 -52 281 -23 354 42 108 73 161 132 222 70 73
114 102 204 139 52 21 76 24 185 24 81 0 137 -5 160 -14 97 -37 150 -71 222
-142 84 -83 78 -81 138 -32 8 7 62 47 120 90 163 120 279 217 279 232 1 8 -5
22 -13 30 -26 29 -74 125 -90 180 -25 86 -22 244 7 324 66 180 199 305 377
352 155 41 331 4 476 -100 20 -15 24 -12 81 57 138 169 293 381 293 401 0 7
-20 30 -45 50 -63 53 -128 150 -159 235 -21 60 -26 91 -26 170 0 57 6 118 15
147 56 185 194 323 386 384 61 19 236 14 299 -9 30 -11 62 -20 71 -20 15 0 42
51 104 200 15 36 33 79 40 95 31 71 85 221 85 237 0 10 -16 24 -37 34 -148 69
-254 186 -303 338 -32 97 -26 274 11 348 5 10 9 23 9 28 0 17 68 121 104 159
46 50 153 116 226 141 50 16 89 21 171 21 l106 0 12 67 c26 152 65 481 60 506
-3 16 -18 23 -64 32 -169 32 -303 128 -382 274 -58 106 -79 231 -59 342 43
240 233 424 469 455 39 5 39 6 32 42 -4 20 -11 74 -16 121 -4 47 -15 130 -24
185 -8 55 -18 123 -21 150 -6 53 -22 105 -33 105 -3 0 -26 -5 -51 -11 -72 -16
-185 6 -300 59 -79 37 -197 158 -238 243 -77 162 -71 339 17 509 44 85 184
204 274 234 9 3 17 12 17 21 0 14 -78 217 -121 312 -12 27 -27 62 -34 78 -56
129 -66 145 -88 145 -13 0 -27 -4 -32 -9 -6 -5 -40 -16 -76 -25 -183 -45 -362
8 -505 149 -102 100 -146 197 -161 348 -5 54 8 155 27 202 36 93 71 147 136
212 l72 71 -20 34 c-11 18 -23 35 -27 38 -3 3 -40 50 -81 105 -41 55 -77 102
-80 105 -3 3 -23 28 -45 55 -39 49 -54 67 -93 112 l-19 22 -34 -25 c-103 -77
-196 -107 -334 -106 -91 1 -121 5 -177 26 -242 90 -387 325 -355 576 4 36 13
79 19 95 22 62 51 120 74 150 13 18 24 38 24 46 -1 8 -33 39 -72 69 -39 30
-76 60 -82 65 -42 38 -304 225 -316 225 -5 0 -13 -6 -17 -14 -41 -73 -178
-172 -283 -206 -59 -20 -262 -20 -310 -1 -168 65 -267 149 -330 277 -16 34
-35 81 -41 105 -28 103 -20 245 18 337 8 18 11 37 8 42 -5 8 -129 70 -141 70
-2 0 -23 9 -47 19 -37 17 -117 49 -281 112 -27 10 -56 19 -65 18 -10 0 -28
-24 -45 -61 -29 -61 -35 -71 -90 -135 -29 -34 -115 -96 -166 -120 -99 -47
-206 -62 -322 -45 -153 23 -318 145 -390 287 -44 88 -49 113 -55 246 l-4 106
-52 11 c-60 13 -73 15 -385 50 -82 9 -84 8 -96 -63 -31 -181 -165 -337 -357
-413 -14 -5 -60 -16 -103 -22 -111 -18 -197 -3 -326 59 -68 32 -185 147 -222
217 -15 27 -37 88 -49 135 -12 46 -24 87 -28 90 -3 3 -37 2 -76 -3z m137 -660
c54 -16 86 -61 99 -138 21 -133 70 -221 157 -282 135 -96 273 -108 421 -35 94
46 201 192 201 274 0 44 20 105 45 139 27 35 89 58 138 49 17 -3 75 -10 127
-16 146 -17 310 -42 388 -59 96 -21 150 -95 131 -177 -45 -197 69 -403 261
-470 40 -14 211 -17 238 -5 9 5 39 20 66 33 69 33 139 107 176 184 35 73 59
100 109 121 39 16 66 11 159 -32 29 -13 55 -24 57 -24 16 0 372 -173 395 -192
53 -43 65 -121 30 -193 -24 -51 -50 -145 -50 -185 0 -16 7 -55 15 -86 43 -166
147 -265 318 -304 119 -27 262 24 360 130 32 34 73 68 93 76 73 30 109 9 368
-216 95 -83 197 -186 211 -213 8 -17 15 -40 15 -53 0 -25 -31 -86 -56 -111
-28 -29 -75 -104 -90 -145 -10 -27 -16 -77 -16 -134 0 -78 4 -98 29 -155 36
-79 80 -130 147 -172 74 -47 121 -60 211 -60 89 -1 136 12 210 58 85 53 110
60 156 45 22 -8 53 -29 69 -47 51 -58 270 -393 270 -414 0 -5 3 -9 8 -9 4 0
13 -13 20 -29 25 -56 31 -91 21 -123 -9 -33 -65 -98 -84 -98 -28 0 -126 -104
-157 -168 -29 -58 -33 -78 -36 -160 -4 -92 -1 -109 37 -192 54 -120 213 -220
349 -220 23 0 67 7 99 16 119 34 161 28 207 -27 21 -25 71 -167 126 -359 12
-41 25 -88 30 -105 5 -16 15 -58 22 -93 12 -60 11 -65 -12 -109 -24 -45 -79
-82 -123 -83 -9 0 -25 -4 -35 -9 -9 -5 -30 -15 -47 -22 -46 -21 -148 -128
-173 -181 -47 -101 -46 -235 2 -341 44 -94 161 -190 261 -212 17 -4 68 -10
115 -14 93 -7 118 -17 144 -56 33 -50 46 -338 27 -574 -9 -100 -10 -105 -44
-138 -33 -34 -38 -35 -139 -43 -57 -5 -124 -16 -148 -26 -219 -85 -317 -329
-219 -539 43 -94 196 -215 269 -215 44 0 102 -52 120 -106 8 -23 6 -47 -6 -95
-8 -35 -19 -80 -24 -99 -17 -71 -47 -171 -98 -327 -37 -111 -59 -141 -123
-163 -30 -11 -43 -10 -85 3 -122 40 -223 36 -328 -14 -68 -32 -143 -110 -180
-188 -28 -60 -31 -75 -30 -166 0 -88 3 -107 27 -155 35 -73 86 -132 156 -180
32 -21 66 -51 76 -66 22 -35 25 -101 5 -140 -23 -46 -186 -300 -257 -402 -92
-133 -142 -150 -246 -86 -91 56 -150 74 -243 74 -109 0 -189 -31 -265 -102
-79 -74 -129 -187 -129 -293 0 -70 57 -218 100 -255 41 -36 60 -75 60 -122 0
-51 -26 -109 -55 -125 -7 -5 -40 -33 -72 -63 -118 -112 -307 -267 -360 -298
-54 -30 -125 -3 -183 69 -47 59 -137 114 -221 134 -62 15 -81 16 -138 6 -140
-26 -247 -106 -302 -226 -29 -63 -32 -80 -32 -165 0 -86 3 -102 32 -165 18
-38 33 -84 33 -101 0 -35 -21 -81 -49 -107 -23 -20 -196 -106 -343 -170 -19
-8 -57 -25 -85 -37 -115 -50 -126 -53 -175 -45 -49 8 -84 43 -123 124 -44 89
-107 153 -192 193 -65 30 -77 33 -170 32 -89 0 -107 -4 -160 -29 -151 -72
-259 -266 -227 -406 16 -67 15 -104 -2 -137 -22 -43 -58 -70 -106 -81 -163
-37 -543 -88 -583 -78 -64 17 -117 102 -117 189 0 77 -108 229 -192 269 -18 9
-46 22 -62 30 -19 9 -64 14 -135 14 -97 -1 -111 -3 -165 -30 -70 -35 -156
-118 -184 -178 -11 -24 -28 -81 -36 -126 -18 -95 -40 -131 -93 -156 -36 -18
-44 -18 -183 -1 -170 21 -300 41 -425 68 -93 19 -153 103 -126 179 30 87 -1
235 -70 326 -61 81 -141 130 -253 153 -111 23 -252 -25 -341 -116 -46 -48 -59
-67 -96 -149 -7 -16 -27 -42 -43 -57 -25 -23 -39 -28 -83 -28 -29 0 -61 4 -71
9 -9 5 -33 16 -52 24 -56 24 -130 57 -205 92 -38 18 -92 43 -120 56 -97 44
-154 86 -170 126 -19 44 -15 72 18 146 35 75 48 165 36 235 -9 53 -14 69 -43
131 -24 52 -108 130 -174 163 -62 31 -73 33 -172 33 -98 0 -110 -2 -170 -32
-44 -22 -86 -54 -131 -101 -104 -109 -153 -107 -301 15 -51 43 -98 82 -104 88
-6 5 -44 39 -85 75 -130 116 -178 169 -185 205 -7 41 8 91 38 125 51 56 76 97
107 173 19 47 14 195 -8 255 -48 130 -156 220 -304 253 -92 20 -220 -13 -319
-82 -18 -13 -43 -19 -81 -19 -50 0 -58 3 -91 38 -40 40 -245 353 -301 458 -39
74 -41 87 -20 137 13 32 79 97 98 97 14 0 97 82 118 117 74 120 79 277 13 405
-37 72 -129 149 -214 181 -60 22 -194 23 -261 1 -70 -23 -124 -14 -165 28 -25
26 -42 63 -77 173 -24 77 -56 187 -71 245 -15 58 -32 115 -37 128 -16 41 -10
102 13 135 31 45 45 54 108 72 30 9 74 25 98 37 60 30 138 117 173 193 25 56
29 76 29 156 0 84 -3 98 -34 164 -43 88 -112 155 -201 196 -54 24 -78 29 -144
29 -44 0 -93 5 -108 12 -43 19 -81 63 -90 105 -4 21 -8 157 -8 303 0 297 4
321 63 370 34 28 42 30 122 30 169 0 294 78 366 226 32 66 34 78 34 169 0 91
-2 103 -35 170 -31 65 -57 96 -133 157 -12 9 -56 29 -99 44 -99 34 -136 61
-152 112 -13 37 -11 50 18 163 18 68 38 141 45 163 7 23 31 97 52 164 47 153
76 191 146 199 30 4 65 0 97 -11 63 -20 192 -21 250 0 51 18 138 73 166 106
36 42 71 102 85 148 19 57 19 209 1 247 -39 81 -48 97 -74 129 -16 19 -54 52
-85 73 -90 61 -105 82 -105 143 -1 48 5 63 60 154 53 87 174 274 230 354 65
93 140 108 238 46 71 -45 162 -76 226 -76 138 0 292 97 352 220 74 154 54 304
-58 440 -57 69 -71 110 -56 159 6 20 19 46 29 56 60 64 254 235 395 349 91 73
157 67 240 -21 105 -112 174 -143 316 -143 87 0 99 3 165 34 204 98 282 343
174 544 -10 18 -18 53 -18 79 0 76 28 102 198 184 81 39 164 79 185 90 22 10
43 19 48 19 8 0 104 41 141 61 42 22 112 4 150 -38 10 -11 32 -48 50 -84 53
-107 121 -165 251 -218 15 -6 64 -11 107 -11 43 0 92 5 107 11 129 52 201 115
251 218 25 53 27 65 27 196 0 222 1 222 355 275 30 4 102 13 160 20 58 6 110
13 115 15 19 7 38 5 77 -7z"/>
<path d="M6495 12800 c-22 -4 -92 -15 -155 -25 -63 -9 -128 -21 -145 -26 l-30
-9 0 -117 c-1 -98 -4 -128 -23 -178 -65 -170 -191 -289 -367 -347 -52 -17
-238 -17 -290 0 -146 48 -278 155 -331 270 -33 71 -39 72 -131 31 -26 -11 -57
-25 -68 -30 -65 -28 -282 -132 -292 -141 -10 -8 -9 -18 3 -46 34 -80 44 -130
44 -227 -1 -147 -45 -263 -139 -363 -215 -227 -546 -238 -770 -24 -36 34 -68
62 -71 62 -3 0 -21 -14 -40 -31 -19 -17 -51 -42 -70 -57 -19 -15 -37 -29 -40
-32 -13 -13 -122 -110 -173 -154 -31 -27 -57 -53 -57 -58 0 -5 18 -32 40 -60
93 -117 135 -283 107 -419 -38 -181 -140 -318 -291 -392 -92 -45 -153 -59
-251 -58 -110 1 -210 30 -288 84 -20 13 -31 16 -40 8 -12 -9 -73 -98 -157
-227 -42 -64 -110 -182 -110 -190 0 -6 14 -18 31 -28 42 -25 119 -102 155
-157 164 -243 98 -580 -146 -746 -42 -28 -67 -41 -143 -72 -44 -18 -194 -24
-262 -11 -98 18 -98 18 -108 -15 -6 -16 -13 -39 -18 -50 -4 -11 -19 -58 -33
-105 -14 -47 -30 -98 -35 -115 -34 -112 -45 -173 -32 -189 8 -9 22 -16 33 -16
34 0 150 -67 204 -118 56 -52 113 -130 133 -183 7 -19 17 -43 22 -54 29 -68
28 -243 -3 -330 -45 -131 -154 -257 -268 -312 -101 -48 -113 -51 -203 -59 -84
-7 -85 -7 -91 -37 -8 -40 -6 -426 3 -457 6 -23 13 -26 91 -32 47 -5 94 -12
105 -17 11 -5 36 -15 55 -22 57 -21 112 -58 171 -118 68 -67 98 -115 130 -201
21 -56 24 -82 23 -185 0 -101 -4 -130 -24 -180 -33 -85 -78 -152 -142 -211
-58 -53 -182 -124 -216 -124 -40 0 -42 -21 -16 -120 40 -149 41 -150 69 -240
15 -47 29 -95 32 -107 8 -34 27 -45 54 -34 74 31 234 31 324 -1 156 -54 289
-183 344 -333 31 -83 39 -219 17 -305 -33 -133 -113 -252 -215 -321 -28 -19
-51 -37 -51 -41 0 -9 88 -157 116 -195 13 -17 24 -34 24 -37 0 -9 131 -196
137 -196 3 0 28 13 55 30 26 17 54 30 61 30 8 0 17 3 21 7 16 17 107 32 192
33 298 1 534 -235 534 -534 0 -136 -41 -256 -118 -346 -17 -21 -32 -42 -32
-47 0 -6 15 -22 33 -38 17 -16 55 -49 82 -74 70 -64 168 -148 221 -189 l44
-35 53 49 c137 126 216 158 387 158 168 0 264 -39 381 -153 72 -72 126 -167
148 -262 23 -99 7 -260 -35 -343 -7 -16 -14 -33 -14 -38 0 -11 293 -154 418
-203 24 -10 44 -16 46 -14 2 2 18 32 36 66 92 175 276 283 482 283 82 0 106
-5 207 -43 200 -75 343 -309 328 -534 -3 -45 -3 -85 2 -87 14 -9 182 -36 341
-55 41 -5 96 -12 121 -16 45 -7 47 -7 52 21 23 116 46 174 95 247 108 156 254
232 447 232 140 0 235 -32 338 -114 74 -60 116 -119 177 -251 4 -9 11 -38 14
-66 11 -77 11 -77 107 -64 278 37 409 61 410 74 0 6 0 50 -1 97 -1 105 11 161
58 259 104 215 368 342 592 285 84 -21 101 -28 160 -62 93 -54 178 -147 224
-245 9 -21 18 -38 20 -38 3 0 47 19 141 59 47 21 166 76 242 113 84 42 84 41
63 93 -73 181 -55 373 49 520 110 155 263 235 451 235 146 0 269 -50 381 -157
54 -52 56 -52 80 -36 21 15 113 89 145 118 6 6 42 38 81 72 97 86 133 120 133
126 0 3 -16 24 -36 48 -76 91 -114 203 -114 337 0 111 9 152 57 249 63 127
162 211 323 274 47 19 262 19 310 0 72 -28 138 -60 145 -70 18 -30 45 -3 143
144 56 85 102 156 102 159 0 3 14 29 32 57 l32 52 -40 30 c-160 124 -245 282
-244 454 1 107 49 252 109 326 74 91 201 177 296 200 64 15 206 20 245 7 19
-6 48 -12 64 -13 28 -2 30 1 62 97 18 55 34 109 37 120 3 12 19 69 36 129 37
128 38 147 11 147 -11 0 -28 4 -38 9 -9 5 -42 21 -73 35 -109 52 -205 157
-251 276 -48 122 -59 210 -37 294 38 147 71 209 158 297 99 99 200 144 352
156 l67 5 6 162 c4 88 3 204 -1 256 l-8 95 -80 6 c-93 8 -124 16 -211 60 -108
54 -223 187 -258 297 -29 91 -40 186 -27 235 6 25 11 56 11 68 0 13 20 64 44
114 36 74 58 104 112 155 64 59 165 117 235 135 31 8 31 11 -13 165 -16 58
-33 119 -38 135 -13 49 -58 183 -64 194 -4 6 -25 4 -58 -5 -68 -21 -209 -20
-278 0 -88 26 -177 76 -231 130 -75 74 -106 123 -150 236 -21 53 -18 261 4
323 43 121 117 219 210 279 26 16 47 34 47 39 0 5 -20 40 -45 79 -25 39 -45
73 -45 76 0 3 -20 34 -45 70 -25 35 -45 66 -45 68 0 10 -92 136 -98 136 -4 0
-23 -10 -42 -23 -81 -54 -139 -70 -263 -75 -109 -4 -124 -2 -195 23 -83 29
-183 95 -227 147 -14 18 -34 42 -42 52 -34 42 -81 164 -93 242 -13 82 -7 154
22 239 17 50 58 131 77 151 10 11 25 31 35 46 l17 26 -58 55 c-32 31 -68 64
-79 74 -12 10 -46 39 -76 65 -30 26 -80 68 -112 94 l-57 47 -52 -50 c-55 -54
-156 -123 -180 -123 -7 0 -17 -3 -21 -7 -31 -32 -228 -43 -321 -18 -166 43
-316 179 -375 340 -24 66 -30 101 -30 180 0 99 14 165 51 237 5 10 9 22 9 28
0 7 -228 123 -315 160 -11 4 -40 17 -65 28 -78 34 -80 34 -119 -36 -51 -89
-144 -181 -222 -219 -113 -55 -127 -58 -254 -58 -142 0 -212 20 -311 91 -99
70 -157 145 -201 263 -21 56 -25 84 -26 183 l-1 117 -41 10 c-22 5 -87 17
-145 26 -58 8 -130 20 -161 25 -30 6 -81 10 -112 10 l-56 0 -10 -37 c-6 -21
-11 -46 -11 -56 0 -46 -83 -191 -145 -252 -99 -100 -235 -155 -381 -155 -127
0 -240 39 -341 118 -81 64 -165 205 -193 325 l-13 57 -66 -1 c-36 -1 -84 -5
-106 -9z m238 -655 c50 -21 75 -61 92 -152 8 -43 25 -98 37 -123 34 -67 123
-153 193 -185 53 -25 71 -29 160 -29 88 0 107 4 155 27 138 66 206 162 240
339 19 98 80 146 170 133 25 -3 77 -10 115 -15 137 -17 388 -65 467 -89 40
-13 84 -58 94 -98 4 -14 1 -56 -6 -93 -26 -138 6 -261 92 -355 82 -90 182
-135 300 -135 132 0 271 87 337 210 43 80 94 120 154 120 24 0 189 -81 327
-160 41 -24 85 -48 97 -54 13 -6 23 -14 23 -18 0 -5 5 -8 10 -8 25 0 180 -111
194 -139 25 -48 20 -110 -12 -162 -63 -99 -83 -200 -62 -304 25 -121 107 -225
220 -279 59 -28 74 -31 165 -30 89 0 106 3 160 29 33 16 77 45 98 64 50 46 94
70 132 71 63 0 125 -56 333 -305 215 -257 230 -283 197 -355 -10 -22 -38 -56
-62 -76 -95 -78 -136 -143 -160 -254 -37 -172 73 -369 243 -433 95 -37 203
-37 289 -2 35 14 80 25 107 25 80 0 103 -30 186 -233 39 -94 76 -192 83 -217
7 -25 16 -49 21 -54 4 -6 8 -18 8 -28 0 -10 4 -26 9 -36 15 -29 41 -123 41
-149 0 -56 -60 -133 -104 -133 -9 0 -24 -4 -34 -9 -9 -5 -34 -16 -55 -25 -50
-21 -144 -110 -169 -160 -69 -136 -61 -303 20 -416 85 -117 194 -170 352 -170
97 0 127 -14 162 -74 23 -40 23 -47 26 -360 4 -358 0 -384 -63 -432 -29 -22
-44 -25 -131 -28 -98 -4 -117 -8 -202 -49 -136 -65 -234 -260 -203 -405 35
-161 133 -272 281 -318 94 -30 137 -84 127 -163 -11 -82 -142 -455 -213 -606
-46 -97 -113 -117 -232 -69 -57 23 -76 25 -156 22 -112 -4 -180 -32 -260 -108
-60 -57 -98 -130 -116 -225 -10 -49 -9 -72 4 -128 27 -115 64 -173 160 -252
70 -57 90 -111 64 -172 -11 -24 -53 -88 -68 -103 -3 -3 -27 -34 -55 -70 -27
-36 -52 -67 -55 -70 -3 -3 -30 -34 -60 -70 -30 -36 -59 -70 -65 -76 -5 -6 -36
-41 -69 -77 -66 -75 -102 -97 -158 -97 -41 0 -74 17 -122 63 -16 15 -59 42
-95 60 -55 27 -79 33 -150 36 -93 4 -137 -7 -218 -52 -59 -32 -126 -102 -149
-156 -9 -20 -21 -47 -28 -60 -6 -14 -11 -68 -10 -125 1 -108 13 -150 68 -230
39 -57 37 -128 -5 -179 -17 -20 -37 -37 -44 -37 -7 0 -15 -4 -17 -8 -3 -8
-114 -82 -123 -82 -3 0 -29 -15 -58 -34 -65 -42 -90 -56 -238 -134 -170 -90
-230 -84 -294 32 -46 83 -81 122 -148 164 -72 45 -96 53 -192 59 -111 8 -216
-34 -298 -119 -82 -85 -131 -231 -108 -322 19 -76 14 -159 -11 -191 -23 -29
-70 -53 -128 -65 -216 -45 -321 -65 -395 -75 -215 -28 -253 -25 -296 22 -26
28 -49 91 -49 134 -1 65 -60 171 -127 228 -68 56 -105 74 -192 92 -122 26
-263 -21 -349 -115 -62 -68 -89 -124 -107 -219 -18 -93 -25 -109 -67 -139 -29
-20 -43 -23 -113 -20 -44 1 -102 6 -130 11 -27 6 -84 15 -125 22 -41 7 -115
20 -165 31 -49 10 -108 22 -129 25 -29 4 -52 18 -84 50 -44 44 -44 44 -38 101
17 170 18 196 6 236 -42 139 -133 240 -256 282 -67 23 -197 22 -260 -1 -98
-37 -185 -115 -225 -202 -10 -23 -36 -55 -56 -72 -63 -52 -100 -44 -303 66
-119 64 -177 97 -217 124 -23 16 -44 29 -47 29 -17 0 -147 93 -165 118 -30 43
-28 111 5 163 55 88 66 128 66 234 0 109 -10 144 -65 225 -95 137 -270 201
-426 154 -69 -20 -115 -46 -174 -100 -87 -78 -162 -70 -254 30 -141 152 -299
339 -364 433 -23 34 -29 52 -29 97 0 51 3 58 38 93 21 21 50 47 64 58 37 29
92 113 109 165 18 58 18 218 0 256 -8 16 -21 44 -30 63 -23 49 -110 134 -164
159 -125 59 -252 56 -379 -9 -60 -30 -143 16 -181 100 -66 147 -108 254 -170
436 -66 196 -54 273 51 310 26 9 55 21 64 26 10 5 23 9 29 9 15 0 79 50 114
89 179 201 115 510 -129 625 -50 24 -73 28 -155 30 -113 3 -154 19 -191 74
l-25 37 0 346 0 346 28 37 c38 49 63 58 178 62 82 2 106 7 160 32 79 37 119
70 163 136 53 81 69 144 64 245 -10 168 -101 292 -253 346 -94 33 -115 47
-143 93 -15 26 -16 84 -2 126 5 17 26 81 46 141 19 61 39 119 44 130 5 11 23
58 40 105 30 80 39 102 74 183 16 34 47 67 83 86 32 16 75 14 127 -8 155 -67
308 -42 431 71 34 30 66 73 87 115 31 63 33 72 33 173 0 98 -2 111 -30 166
-19 39 -57 87 -111 140 -106 103 -117 147 -61 229 20 29 156 205 167 215 3 3
27 32 55 65 113 136 198 223 230 235 62 23 108 9 184 -58 82 -73 219 -112 317
-92 288 59 423 356 273 601 -47 76 -54 111 -30 164 17 39 35 55 135 120 63 41
118 75 121 75 4 0 19 8 33 19 30 20 86 51 234 130 150 79 204 68 280 -59 48
-80 116 -145 188 -178 48 -22 69 -26 160 -26 93 0 111 3 161 27 135 63 221
187 228 326 2 42 -2 105 -9 142 -12 60 -11 70 6 105 24 47 59 74 115 86 24 5
63 13 87 19 84 18 129 27 257 48 72 12 150 25 175 30 71 13 115 12 153 -4z"/>
<path d="M6590 11999 c-36 -5 -108 -17 -160 -26 -52 -9 -115 -19 -140 -24 -25
-4 -76 -14 -115 -23 -38 -9 -73 -16 -76 -16 -3 0 -5 -62 -5 -137 1 -145 -8
-188 -57 -278 -67 -122 -187 -218 -332 -266 -23 -8 -84 -14 -145 -14 -61 0
-122 6 -145 14 -134 44 -247 131 -319 244 l-37 58 -72 -39 c-40 -21 -94 -52
-122 -67 -27 -16 -65 -37 -83 -47 -31 -17 -222 -137 -231 -144 -2 -2 10 -30
27 -61 53 -101 65 -148 65 -263 -1 -216 -109 -393 -297 -485 -78 -38 -151 -55
-241 -55 -125 0 -210 28 -322 107 -34 24 -66 43 -72 43 -5 0 -18 -11 -28 -24
-10 -13 -48 -56 -83 -95 -73 -82 -250 -300 -257 -317 -2 -7 26 -43 64 -80 133
-134 189 -318 152 -496 -42 -201 -208 -370 -409 -419 -75 -18 -182 -15 -255 6
-109 31 -104 34 -152 -83 -41 -99 -134 -367 -147 -424 -5 -21 -3 -28 9 -28 8
0 23 -4 33 -9 9 -5 43 -22 75 -38 104 -51 204 -164 254 -286 22 -54 26 -78 27
-182 1 -127 -12 -185 -58 -268 -97 -172 -292 -287 -487 -287 l-49 0 2 -292 3
-293 80 -7 c153 -14 258 -62 361 -163 103 -102 147 -199 161 -353 19 -219
-146 -467 -358 -537 -27 -9 -49 -20 -49 -23 0 -7 46 -151 60 -187 5 -11 36
-93 71 -183 34 -89 68 -167 74 -172 9 -7 22 -7 41 1 293 113 615 -39 719 -339
8 -23 17 -75 21 -116 15 -162 -45 -324 -161 -435 l-66 -64 32 -46 c18 -25 35
-48 38 -51 4 -3 24 -27 46 -55 21 -27 42 -52 45 -55 3 -3 20 -23 39 -45 19
-22 68 -77 109 -123 l75 -83 26 24 c48 45 121 88 189 113 96 35 258 35 353 0
102 -37 127 -54 214 -142 53 -53 90 -112 122 -194 6 -14 16 -58 23 -98 11 -60
11 -87 0 -155 -7 -45 -16 -89 -20 -97 -4 -8 -22 -44 -39 -78 -18 -35 -31 -65
-29 -67 11 -9 180 -115 184 -115 2 0 23 -12 45 -26 99 -62 258 -144 281 -144
10 0 18 5 18 11 0 22 82 129 132 171 123 104 289 154 426 129 134 -25 216 -66
302 -151 117 -116 165 -233 163 -395 -1 -55 -3 -109 -5 -119 -4 -28 13 -32
448 -106 93 -15 89 -18 108 62 36 148 112 261 225 337 49 33 81 48 169 82 36
14 231 11 282 -5 102 -31 172 -74 249 -155 60 -62 124 -186 135 -261 11 -74 9
-73 132 -55 105 15 236 38 319 56 105 21 139 29 143 33 2 3 -1 39 -6 82 -26
189 60 392 212 502 104 77 191 105 321 106 153 1 273 -47 381 -150 43 -42 104
-126 104 -144 0 -24 30 -19 96 16 38 20 81 45 96 56 14 10 28 18 31 18 9 0
285 167 305 186 2 1 -9 26 -25 56 -66 120 -86 249 -60 375 19 88 38 130 93
208 70 100 138 149 284 206 23 9 76 14 150 14 96 -1 126 -5 180 -24 72 -26
127 -58 179 -104 l35 -30 29 34 c17 19 49 54 72 79 48 52 275 332 275 340 0 3
-31 37 -68 75 -47 48 -79 93 -104 145 -48 100 -58 142 -58 240 0 98 10 140 57
239 49 102 131 187 225 233 120 59 135 63 258 63 109 0 140 -6 208 -38 28 -13
33 -8 62 68 13 33 28 74 35 90 7 17 18 46 25 65 7 19 16 44 21 55 23 55 79
236 79 258 0 18 -7 28 -22 32 -218 63 -378 282 -378 515 1 153 47 266 155 378
103 106 199 150 350 161 l90 6 3 275 c1 151 0 285 -3 296 -4 19 -13 22 -87 26
-135 8 -264 65 -357 159 -40 39 -111 143 -111 161 0 8 -4 18 -9 24 -16 17 -41
139 -41 200 0 224 151 429 378 514 34 13 37 20 23 48 -5 9 -21 55 -36 102 -15
47 -31 94 -35 105 -5 11 -23 58 -40 105 -18 47 -39 101 -47 120 -20 46 -37 84
-39 88 -2 2 -31 -7 -66 -19 -52 -19 -83 -23 -178 -24 -115 0 -130 3 -229 47
-105 47 -210 150 -258 255 -99 214 -58 446 109 617 74 77 74 73 18 139 -10 12
-55 67 -101 123 -118 141 -220 254 -231 254 -6 0 -29 -16 -51 -36 -23 -19 -69
-49 -103 -65 -214 -105 -449 -66 -620 105 -169 169 -210 408 -105 620 17 35
31 68 31 74 0 10 -119 89 -210 140 -25 14 -61 34 -80 45 -67 38 -203 107 -211
107 -5 0 -27 -29 -50 -65 -98 -156 -262 -247 -449 -249 -154 -2 -275 48 -386
158 -122 123 -157 214 -157 403 l1 131 -62 12 c-33 7 -81 16 -106 21 -154 31
-354 57 -366 47 -7 -5 -15 -29 -19 -55 -14 -97 -66 -194 -150 -278 -103 -105
-242 -165 -380 -165 -189 0 -399 129 -482 296 -16 34 -38 96 -48 138 -10 42
-21 75 -24 75 -3 -1 -35 -5 -71 -10z m167 -676 c35 -23 51 -57 69 -139 20
-100 45 -152 102 -213 79 -83 168 -121 289 -121 82 0 100 4 182 44 91 43 201
191 201 269 0 54 31 126 64 152 48 36 106 35 326 -6 157 -30 301 -67 329 -86
60 -38 77 -92 56 -178 -25 -104 -15 -203 29 -296 26 -55 113 -138 180 -171 56
-28 70 -31 166 -31 95 -1 110 1 161 26 74 36 138 93 185 166 21 33 52 67 68
77 45 26 107 22 155 -9 22 -15 44 -27 47 -27 12 0 287 -188 348 -237 99 -81
107 -136 32 -243 -59 -84 -78 -141 -78 -235 1 -116 29 -191 101 -268 84 -90
167 -127 286 -127 103 0 184 27 249 83 15 13 46 30 67 37 51 17 110 -1 145
-44 45 -55 49 -60 96 -126 114 -161 209 -322 214 -364 10 -67 -16 -110 -96
-161 -75 -48 -113 -90 -152 -167 -75 -151 -47 -329 72 -448 105 -105 226 -139
382 -106 44 9 80 11 104 6 41 -10 94 -55 94 -81 0 -10 4 -20 9 -23 5 -3 11
-20 14 -38 2 -18 17 -87 31 -153 32 -142 45 -216 52 -306 6 -70 -5 -102 -51
-141 -22 -18 -89 -38 -130 -38 -14 0 -33 -4 -43 -9 -9 -5 -35 -17 -57 -27 -88
-41 -174 -151 -204 -259 -56 -205 95 -436 311 -475 155 -28 202 -99 169 -252
-6 -24 -17 -83 -26 -133 -20 -106 -51 -246 -66 -295 -27 -85 -124 -135 -192
-99 -12 7 -63 12 -117 12 -85 -1 -103 -4 -163 -31 -156 -71 -258 -257 -226
-413 27 -134 75 -207 187 -283 119 -82 131 -148 47 -277 -25 -38 -45 -74 -45
-79 0 -6 -4 -10 -10 -10 -5 0 -10 -4 -10 -10 0 -11 -126 -194 -177 -258 -70
-86 -129 -94 -224 -29 -106 71 -140 82 -254 82 -90 0 -106 -3 -160 -29 -67
-32 -164 -124 -188 -177 -33 -76 -39 -101 -39 -178 -1 -99 18 -156 78 -241 86
-123 73 -162 -96 -293 -49 -39 -121 -87 -129 -87 -5 0 -11 -3 -13 -7 -3 -8
-114 -83 -122 -83 -2 0 -30 -16 -62 -35 -65 -39 -110 -44 -152 -18 -37 24 -43
30 -80 90 -39 61 -106 123 -162 150 -93 45 -189 54 -281 27 -214 -62 -327
-265 -274 -489 28 -115 -13 -179 -132 -209 -262 -66 -479 -101 -535 -86 -61
17 -108 93 -108 174 0 46 -56 150 -109 202 -62 62 -123 93 -212 110 -123 23
-250 -18 -342 -111 -62 -63 -91 -120 -112 -221 -34 -164 -73 -181 -330 -134
-364 67 -418 87 -445 169 -11 34 -11 48 1 88 21 73 16 217 -10 276 -97 222
-351 311 -559 195 -52 -28 -106 -83 -152 -154 -41 -62 -87 -94 -136 -94 -26 0
-126 47 -132 63 -2 4 -8 7 -14 7 -9 0 -224 140 -261 170 -6 5 -40 32 -74 59
-95 78 -104 134 -37 228 47 65 69 115 84 194 31 160 -66 336 -229 416 -50 25
-67 28 -156 28 -116 0 -152 -11 -252 -80 -109 -75 -162 -60 -260 72 -107 145
-242 357 -261 410 -21 61 19 136 93 173 40 21 130 112 149 152 34 72 46 124
46 192 0 246 -213 426 -455 385 -33 -5 -75 -13 -93 -16 -79 -13 -141 47 -167
163 -9 44 -21 93 -25 109 -4 17 -13 57 -19 90 -6 33 -17 95 -26 139 -8 43 -15
102 -15 132 0 48 4 58 36 94 25 28 47 41 72 45 136 22 199 50 273 122 66 64
119 187 119 278 0 130 -103 296 -215 349 -22 10 -48 22 -57 27 -10 5 -29 9
-43 9 -112 0 -185 62 -185 156 0 63 31 230 86 471 12 52 26 83 50 111 41 48
77 56 171 36 84 -17 134 -18 198 0 81 21 125 46 181 102 79 79 114 166 114
278 0 85 -20 151 -66 221 -38 59 -61 80 -139 129 -73 47 -103 106 -84 164 24
73 282 459 334 501 50 38 130 36 172 -5 58 -56 167 -94 271 -94 70 0 92 4 147
29 77 35 158 108 191 172 13 26 31 77 40 114 15 59 15 76 4 134 -14 73 -50
157 -81 190 -54 58 -60 135 -13 190 36 43 314 237 439 306 97 54 164 36 228
-63 49 -78 108 -132 182 -167 54 -26 70 -29 160 -29 87 0 108 4 160 28 164 74
256 252 225 431 -6 33 -13 74 -17 92 -6 40 27 103 67 127 28 16 114 40 235 65
33 7 78 16 100 21 38 8 151 26 205 33 36 5 82 -4 107 -20z"/>
<path d="M6610 11189 c-19 -4 -87 -17 -150 -29 -63 -12 -148 -29 -189 -38
l-73 -17 6 -45 c17 -118 18 -147 6 -214 -38 -213 -200 -386 -413 -441 -205
-53 -444 42 -568 224 -19 28 -37 51 -41 51 -10 0 -285 -176 -302 -193 -7 -6
-29 -23 -49 -37 -20 -14 -39 -30 -41 -35 -2 -6 11 -33 30 -60 31 -46 43 -73
72 -166 15 -45 15 -211 1 -258 -39 -130 -126 -251 -228 -320 -96 -65 -168 -86
-301 -86 -74 0 -128 5 -150 14 -77 30 -127 54 -157 77 -17 13 -36 24 -41 24
-15 0 -172 -226 -245 -352 l-27 -47 32 -22 c113 -79 173 -153 224 -274 27 -65
29 -78 28 -195 -1 -109 -5 -133 -27 -187 -102 -250 -372 -398 -619 -339 l-56
14 -25 -107 c-36 -154 -49 -225 -63 -332 l-6 -46 51 -7 c77 -10 132 -34 216
-92 98 -68 167 -161 205 -275 24 -74 29 -235 9 -297 -29 -90 -47 -127 -91
-188 -74 -103 -185 -175 -321 -210 -75 -19 -76 -19 -56 -116 6 -29 15 -78 21
-108 13 -69 35 -173 49 -226 l11 -41 71 14 c203 39 425 -55 547 -232 15 -22
40 -71 56 -110 26 -65 28 -80 27 -195 0 -110 -4 -133 -26 -187 -13 -34 -40
-83 -58 -110 -33 -49 -136 -153 -151 -153 -4 0 -17 -8 -27 -17 -20 -16 -19
-17 6 -62 60 -108 230 -351 246 -351 4 0 23 11 40 24 28 21 62 38 132 66 43
18 117 30 179 30 240 0 460 -175 525 -416 14 -54 14 -208 0 -253 -26 -80 -39
-110 -73 -167 l-35 -59 27 -23 c44 -37 354 -242 366 -242 7 0 19 12 28 28 55
93 172 186 286 228 54 20 87 25 172 26 62 1 121 -4 145 -12 182 -59 305 -176
375 -355 21 -52 32 -149 25 -208 -4 -34 -8 -78 -9 -97 l-1 -35 70 -18 c115
-29 241 -53 337 -63 l57 -6 10 43 c31 127 77 212 159 294 100 100 233 155 377
155 150 0 263 -48 376 -160 87 -87 138 -178 154 -275 11 -68 5 -67 185 -36 89
16 150 29 225 48 l70 18 -3 35 c-1 19 -5 68 -8 109 -16 197 108 415 288 503
109 54 142 61 258 60 123 -1 201 -25 298 -91 58 -39 137 -122 161 -168 6 -13
18 -23 25 -23 13 0 344 216 379 247 16 15 16 18 2 39 -76 117 -105 207 -105
336 0 114 28 207 91 299 136 201 416 294 624 209 70 -28 113 -51 134 -69 14
-12 30 -20 37 -19 22 5 274 370 274 397 0 3 -14 12 -31 20 -17 7 -61 43 -97
80 -188 187 -216 471 -70 688 115 171 323 263 524 233 41 -6 81 -9 89 -7 7 3
15 20 18 39 3 18 10 53 16 78 23 102 61 311 61 335 0 6 -30 19 -67 29 -196 52
-334 175 -399 354 -35 96 -35 258 0 354 67 184 232 325 414 354 23 4 45 10 47
15 13 20 -69 447 -89 467 -4 3 -33 1 -64 -6 -174 -36 -349 18 -479 148 -248
246 -210 639 81 839 46 32 47 33 32 56 -9 13 -25 40 -37 61 -36 64 -212 314
-221 314 -5 0 -24 -11 -41 -24 -30 -23 -80 -47 -157 -77 -22 -9 -76 -14 -150
-14 -96 0 -126 4 -179 24 -83 30 -154 76 -212 138 -60 62 -90 112 -123 201
-32 89 -36 229 -10 319 16 56 65 157 89 183 8 9 11 20 7 26 -17 25 -369 264
-389 264 -5 0 -21 -20 -36 -44 -66 -105 -204 -200 -333 -231 -67 -16 -177 -19
-220 -6 -16 5 -49 15 -74 22 -130 39 -249 146 -314 284 -56 119 -67 214 -40
366 6 35 5 37 -28 42 -18 3 -85 17 -148 32 -63 14 -144 30 -180 35 -36 5 -75
12 -87 15 -18 6 -23 2 -32 -32 -6 -21 -11 -46 -11 -56 0 -26 -54 -140 -87
-184 -167 -223 -457 -288 -703 -156 -49 26 -134 100 -170 148 -45 59 -79 138
-100 233 -7 28 -17 51 -23 51 -7 -1 -28 -5 -47 -10z m995 -968 c33 -6 89 -15
125 -21 187 -31 489 -117 604 -171 22 -11 44 -19 50 -19 15 0 297 -140 341
-170 22 -15 47 -30 55 -33 45 -20 205 -133 332 -234 390 -311 711 -743 910
-1223 6 -14 14 -33 19 -42 5 -10 9 -25 9 -33 0 -8 4 -23 10 -33 8 -15 41 -113
69 -207 28 -93 64 -269 92 -455 18 -114 18 -616 1 -725 -7 -44 -18 -111 -24
-150 -11 -71 -48 -237 -69 -310 -19 -65 -79 -248 -88 -270 -5 -11 -16 -36 -25
-57 -9 -20 -16 -38 -16 -41 0 -21 -162 -333 -201 -389 -11 -14 -19 -29 -19
-32 0 -16 -214 -307 -265 -362 -5 -6 -41 -46 -80 -89 -238 -266 -654 -565
-985 -708 -19 -8 -51 -22 -70 -30 -19 -9 -62 -25 -95 -37 -33 -12 -69 -25 -80
-29 -59 -24 -167 -55 -315 -91 -186 -45 -483 -80 -675 -80 -155 0 -440 30
-590 62 -170 36 -306 72 -337 89 -10 5 -25 9 -33 9 -8 0 -23 4 -33 9 -9 6 -44
20 -77 31 -65 23 -92 34 -200 84 -38 18 -85 39 -102 47 -18 8 -33 17 -33 21 0
5 -6 8 -13 8 -7 0 -40 16 -73 36 -32 20 -74 45 -92 55 -48 28 -86 53 -92 60
-3 3 -25 19 -50 34 -165 103 -469 385 -629 585 -71 88 -226 315 -280 410 -47
82 -132 258 -165 340 -21 52 -42 104 -46 115 -19 42 -77 236 -101 340 -61 255
-94 616 -78 845 11 148 36 365 49 420 5 19 13 60 20 90 16 81 71 278 90 325 5
11 21 54 36 95 117 323 334 681 569 940 115 127 314 312 410 382 5 4 24 18 40
32 40 31 248 171 282 189 299 158 486 238 668 288 17 4 55 15 85 24 100 29
284 63 465 85 95 12 625 5 700 -9z"/>
<path d="M6880 10078 c-30 -5 -86 -13 -125 -19 -70 -11 -264 -53 -320 -70 -84
-25 -253 -81 -275 -91 -14 -6 -34 -14 -45 -19 -138 -54 -489 -249 -584 -324
-9 -7 -63 -51 -121 -97 -105 -83 -270 -240 -370 -353 -163 -183 -365 -502
-459 -725 -13 -30 -29 -68 -36 -85 -17 -38 -60 -158 -76 -210 -6 -22 -15 -51
-20 -65 -11 -37 -56 -226 -67 -290 -29 -154 -35 -224 -39 -445 -4 -215 0 -302
23 -490 9 -74 67 -346 84 -390 4 -11 13 -38 19 -60 86 -279 276 -653 437 -854
7 -9 43 -54 80 -101 93 -117 297 -320 424 -422 100 -80 290 -211 375 -259 57
-31 272 -139 279 -139 4 0 25 -9 49 -19 67 -30 203 -78 287 -101 25 -7 56 -16
70 -21 97 -34 283 -64 544 -86 187 -16 210 -16 400 0 309 26 343 32 651 117
70 19 187 62 252 91 24 10 45 19 48 19 6 0 171 82 245 121 25 13 47 27 48 32
2 4 8 7 14 7 17 0 229 144 336 229 180 142 401 373 527 551 22 30 43 57 47 58
5 2 8 8 8 12 0 5 20 38 45 73 25 36 45 68 45 72 0 4 9 19 19 34 29 41 145 275
181 366 17 44 36 88 41 97 5 10 9 25 9 33 0 8 4 23 10 33 9 15 48 146 69 232
25 97 52 251 70 400 14 111 14 480 0 589 -20 159 -46 305 -70 401 -13 55 -60
213 -69 235 -5 11 -19 49 -31 85 -80 236 -282 586 -462 805 -148 178 -320 345
-477 463 -41 31 -77 59 -80 62 -3 4 -9 9 -15 11 -5 2 -62 38 -125 80 -96 63
-390 219 -414 219 -3 0 -25 9 -49 19 -23 11 -91 36 -152 56 -150 48 -160 51
-245 70 -41 9 -88 21 -105 25 -16 5 -68 13 -115 20 -47 6 -109 16 -139 21 -68
11 -577 10 -651 -3z m640 -817 c146 -24 315 -66 395 -100 11 -5 36 -15 55 -22
60 -21 223 -101 278 -136 29 -18 55 -33 58 -33 6 0 155 -105 194 -137 101 -80
258 -237 333 -332 39 -49 146 -209 174 -261 156 -285 214 -463 263 -807 13
-93 13 -357 0 -442 -6 -36 -16 -95 -21 -131 -43 -268 -149 -534 -306 -773
-132 -201 -301 -386 -458 -502 -22 -17 -42 -33 -45 -36 -25 -32 -340 -211
-430 -244 -25 -9 -54 -21 -65 -25 -60 -26 -220 -73 -305 -89 -30 -6 -80 -16
-110 -22 -84 -17 -432 -24 -541 -10 -130 17 -233 36 -319 59 -127 34 -354 124
-412 164 -14 10 -29 18 -33 18 -3 0 -31 16 -61 35 -30 19 -57 35 -59 35 -6 0
-108 71 -115 81 -3 3 -12 10 -21 15 -72 40 -298 263 -384 379 -17 22 -33 42
-36 45 -19 15 -153 239 -193 325 -64 133 -60 125 -100 245 -85 262 -111 435
-103 705 5 177 9 217 38 365 19 98 82 304 115 380 140 314 316 556 564 774 61
54 224 172 286 207 87 49 203 106 269 133 39 16 79 32 90 37 88 36 288 85 445
108 80 11 472 6 560 -8z"/>
<path d="M7065 9129 c-290 -31 -455 -77 -705 -197 -83 -40 -256 -143 -270
-161 -3 -3 -32 -26 -65 -51 -89 -66 -261 -242 -344 -353 -96 -128 -251 -406
-251 -450 0 -7 -4 -17 -8 -22 -12 -13 -59 -167 -78 -252 -51 -230 -58 -589
-14 -788 30 -138 78 -304 92 -319 4 -6 8 -16 8 -23 0 -15 86 -194 131 -273
197 -346 556 -655 934 -805 39 -15 79 -31 90 -35 11 -5 29 -11 40 -13 11 -3
52 -14 90 -25 69 -19 121 -30 241 -51 33 -6 150 -11 259 -11 109 0 226 5 259
11 120 21 172 32 241 51 39 11 79 22 90 25 11 2 29 8 40 13 11 4 36 14 55 21
59 21 285 131 288 140 2 5 8 9 14 9 16 0 165 107 258 186 85 72 179 167 235
238 17 21 38 48 48 60 62 71 164 248 240 416 20 43 77 213 88 260 49 212 52
242 53 480 1 282 -9 349 -92 610 -32 101 -48 142 -113 275 -105 218 -306 459
-539 646 -134 107 -374 235 -545 289 -38 13 -79 26 -90 30 -59 23 -237 54
-393 70 -115 11 -171 11 -287 -1z m-55 -309 c4 -8 12 -26 18 -40 5 -14 14 -37
21 -52 l11 -28 159 0 159 0 24 68 23 67 40 -2 c41 -2 131 -19 175 -33 14 -4
57 -18 97 -30 108 -33 108 -33 93 -120 -12 -72 -12 -73 11 -91 13 -10 27 -19
30 -19 3 0 53 -27 110 -60 57 -33 107 -60 111 -60 4 0 28 20 55 45 26 24 55
45 64 45 35 0 300 -267 299 -301 -1 -8 -19 -32 -40 -54 -22 -22 -42 -47 -45
-56 -3 -9 10 -44 30 -78 19 -33 51 -89 71 -123 48 -85 52 -88 77 -79 12 5 45
12 73 16 51 6 52 6 68 -26 9 -18 16 -40 16 -50 0 -10 4 -20 9 -23 5 -3 11 -18
14 -33 3 -16 14 -62 25 -103 11 -41 22 -97 25 -123 5 -53 5 -53 -98 -89 l-40
-14 -3 -154 c-1 -92 1 -157 7 -163 13 -13 80 -37 103 -37 24 0 36 -28 31 -70
-7 -56 -54 -244 -64 -254 -5 -6 -9 -19 -10 -30 -1 -30 -34 -81 -50 -79 -8 1
-38 6 -66 12 -29 6 -58 8 -65 6 -14 -6 -151 -240 -156 -265 -1 -8 18 -35 42
-60 25 -25 45 -52 46 -60 1 -37 -262 -300 -299 -300 -9 0 -32 15 -51 33 -70
65 -61 64 -147 14 -43 -24 -95 -54 -116 -66 -80 -45 -86 -51 -78 -74 18 -46
23 -123 9 -133 -36 -28 -315 -104 -382 -104 -19 0 -26 10 -41 63 -10 34 -23
68 -28 75 -7 9 -52 12 -162 12 -172 0 -158 7 -191 -97 -15 -48 -19 -53 -45
-53 -67 0 -349 79 -381 107 -12 11 -14 21 -8 41 5 15 11 45 14 68 7 47 -1 56
-79 100 -70 38 -104 58 -147 83 l-38 23 -27 -20 c-16 -11 -39 -32 -52 -46 -14
-14 -32 -26 -42 -26 -36 0 -299 261 -299 296 0 7 20 34 45 61 24 26 45 53 45
59 0 6 -25 53 -55 103 -30 51 -55 95 -55 99 0 4 -12 22 -27 40 -27 32 -29 33
-78 23 -27 -5 -58 -13 -67 -16 -22 -9 -41 21 -71 115 -27 82 -39 132 -58 227
-13 71 -4 93 37 93 12 0 26 5 29 10 3 6 17 10 29 10 42 0 47 18 44 180 l-3
153 -64 23 c-35 13 -69 28 -74 33 -18 18 37 254 89 379 l14 34 52 -7 c29 -4
63 -11 76 -16 19 -7 26 -3 47 31 14 22 25 42 25 46 0 3 8 18 19 32 10 15 35
57 55 94 41 76 41 81 -18 137 -20 19 -36 42 -36 51 0 38 261 300 299 300 9 0
37 -21 63 -47 l48 -47 42 22 c24 12 57 30 73 40 17 9 57 33 90 51 33 19 63 39
67 45 8 13 -1 94 -14 118 -14 29 22 53 128 86 102 31 128 38 204 52 60 10 81
8 90 -10z"/>
</g>
</svg>
