<?xml version="1.0" standalone="no"?>
<!DOCTYPE svg PUBLIC "-//W3C//DTD SVG 20010904//EN"
 "http://www.w3.org/TR/2001/REC-SVG-20010904/DTD/svg10.dtd">
<svg version="1.0" xmlns="http://www.w3.org/2000/svg"
 width="1361.000000pt" height="1361.000000pt" viewBox="0 0 1361.000000 1361.000000"
 preserveAspectRatio="xMidYMid meet">

<g transform="translate(0.000000,1361.000000) scale(0.100000,-0.100000)"
fill="#000000" stroke="none">
<path d="M5747 13565 c-12 -83 -67 -159 -147 -201 -52 -28 -181 -26 -236 3
-57 30 -119 104 -135 159 -8 26 -19 49 -26 51 -7 3 -44 0 -83 -7 l-70 -12 0
-42 c0 -142 -120 -260 -265 -260 -105 0 -204 65 -247 160 l-20 45 -41 -6 c-22
-4 -57 -13 -76 -20 -34 -11 -35 -13 -32 -57 9 -155 -115 -290 -266 -290 -97 0
-190 52 -235 133 -12 21 -25 39 -29 39 -4 0 -39 -12 -77 -26 l-70 -25 10 -42
c29 -126 -42 -261 -165 -312 -49 -20 -150 -19 -195 2 -51 23 -105 66 -122 97
-7 14 -19 26 -26 26 -11 0 -90 -39 -136 -67 -5 -2 -1 -18 9 -36 10 -20 16 -56
16 -97 0 -234 -281 -356 -450 -195 l-46 44 -52 -35 c-78 -51 -80 -55 -55 -105
49 -95 19 -234 -66 -309 -55 -47 -99 -63 -179 -64 -73 0 -145 26 -182 66 -9
10 -20 18 -25 18 -5 0 -36 -25 -68 -56 l-58 -55 24 -36 c110 -162 1 -393 -194
-410 -67 -6 -125 8 -175 41 l-36 24 -56 -58 -56 -59 35 -46 c44 -58 60 -113
53 -192 -14 -182 -212 -295 -376 -215 -25 12 -46 20 -48 18 -3 -2 -24 -32 -48
-66 l-44 -62 34 -30 c50 -43 86 -126 86 -197 1 -114 -67 -209 -179 -251 -63
-24 -105 -25 -163 -5 -24 9 -48 14 -54 12 -11 -5 -81 -135 -74 -140 108 -80
141 -135 141 -236 0 -116 -55 -200 -161 -249 -47 -22 -63 -24 -131 -19 l-77 5
-21 -52 c-34 -85 -36 -95 -15 -103 69 -24 145 -129 159 -220 14 -91 -49 -204
-143 -260 -38 -22 -60 -27 -122 -29 l-76 -2 -11 -39 c-6 -21 -15 -57 -18 -80
-7 -38 -6 -41 19 -47 106 -27 197 -165 182 -278 -3 -23 -18 -66 -34 -97 -45
-88 -128 -139 -232 -144 l-38 -1 -11 -68 c-16 -91 -15 -98 8 -98 56 0 156 -75
193 -145 31 -57 31 -183 0 -240 -42 -79 -138 -144 -210 -145 l-33 0 0 -84 0
-83 57 -12 c187 -38 273 -252 166 -409 -37 -54 -87 -90 -155 -112 -42 -13 -43
-15 -27 -107 l11 -63 37 0 c104 0 216 -81 251 -182 24 -70 25 -100 3 -169 -21
-64 -100 -150 -156 -168 -38 -13 -38 -13 -31 -54 3 -23 12 -57 19 -76 12 -35
12 -35 76 -36 71 -1 133 -24 186 -69 35 -30 77 -110 87 -169 9 -48 -16 -140
-51 -185 -24 -32 -91 -86 -116 -95 -7 -2 -2 -29 17 -80 25 -69 30 -77 49 -71
12 4 51 7 88 6 151 -1 259 -112 259 -267 0 -82 -30 -145 -95 -203 -50 -44 -50
-39 -2 -130 l27 -52 36 15 c94 39 228 6 297 -75 91 -107 88 -251 -8 -358 l-43
-48 30 -44 c55 -83 57 -84 112 -60 102 43 234 16 303 -64 56 -62 67 -93 67
-181 1 -85 -18 -138 -63 -179 -12 -11 -21 -23 -21 -27 0 -5 24 -34 53 -65 l53
-57 43 28 c60 40 174 47 248 16 100 -44 157 -133 157 -246 0 -61 -4 -78 -31
-126 l-32 -56 37 -34 c82 -77 76 -74 116 -44 44 33 126 65 169 65 86 0 188
-59 231 -133 43 -73 51 -128 31 -203 -9 -35 -21 -67 -26 -70 -20 -12 -6 -31
54 -72 l63 -43 41 40 c152 144 390 77 449 -127 16 -53 16 -61 0 -122 -9 -36
-16 -68 -16 -72 0 -4 31 -23 69 -43 l69 -34 17 26 c25 38 64 72 110 96 56 30
174 29 230 0 52 -28 101 -77 128 -127 21 -41 29 -136 17 -196 -5 -22 1 -27 65
-51 68 -26 95 -25 95 3 0 27 66 90 125 118 109 52 224 31 305 -56 55 -60 73
-105 73 -187 l0 -67 51 -15 c93 -26 108 -25 120 13 5 19 29 55 53 82 73 81
189 111 285 73 101 -39 165 -124 175 -232 l5 -57 77 -11 c41 -6 79 -9 83 -7 5
3 8 15 8 28 0 35 61 128 105 158 165 114 395 17 422 -177 l6 -46 80 3 81 3 11
50 c15 65 35 102 77 141 59 56 94 69 189 69 75 0 90 -3 125 -26 63 -42 102
-89 120 -143 9 -28 20 -54 23 -59 4 -4 42 -2 84 5 l77 12 0 47 c0 142 144 270
286 256 97 -10 187 -74 223 -157 22 -50 22 -51 59 -44 20 4 55 12 77 18 l40
12 -3 55 c-8 131 86 249 223 280 91 20 196 -23 261 -108 18 -23 34 -48 36 -54
3 -10 24 -6 81 15 l76 28 -7 31 c-40 182 78 337 258 337 86 0 153 -31 205 -94
43 -52 45 -52 129 -4 l54 31 -14 33 c-23 55 -18 157 11 213 49 97 155 158 261
149 30 -3 54 -2 54 2 0 12 -500 500 -513 500 -7 0 -22 -7 -34 -15 -49 -34
-263 -135 -343 -162 -80 -26 -95 -28 -255 -28 -152 0 -177 3 -235 23 -291 105
-480 350 -529 687 -5 39 -19 131 -31 205 -43 269 -49 307 -70 440 -12 74 -28
178 -35 230 -31 209 -24 194 -134 305 -717 731 -1188 1223 -1442 1506 -154
171 -176 196 -245 279 -72 88 -154 200 -154 213 0 14 22 6 43 -16 12 -12 78
-76 147 -142 69 -65 193 -185 275 -265 212 -205 418 -403 790 -760 66 -63 181
-173 255 -245 75 -71 237 -227 360 -345 124 -118 286 -273 360 -345 74 -71
139 -134 146 -140 16 -15 406 -388 573 -550 80 -77 200 -192 266 -256 66 -63
174 -167 240 -231 66 -64 138 -133 160 -153 22 -21 92 -88 155 -149 298 -289
664 -642 674 -651 22 -19 562 -541 826 -799 102 -99 248 -241 325 -316 302
-293 1026 -1001 1330 -1301 176 -174 343 -336 372 -360 329 -278 828 -268
1139 24 142 133 224 286 259 487 20 113 19 180 -4 297 -23 115 -46 179 -94
265 -61 110 7 37 -971 1033 -540 550 -801 817 -861 880 -20 22 -177 184 -349
360 -357 368 -577 594 -591 611 -5 6 -129 134 -275 284 -146 150 -269 278
-275 284 -5 7 -71 75 -145 151 -74 77 -195 203 -269 280 -74 77 -184 192 -245
255 -61 63 -171 178 -246 255 -244 253 -393 409 -509 530 -63 66 -166 174
-230 240 -180 187 -347 360 -581 605 -118 123 -274 285 -345 360 -223 231
-370 384 -380 396 -5 7 -60 63 -120 125 -284 293 -644 667 -704 732 -71 76 -6
50 119 -47 123 -95 401 -340 620 -546 113 -106 296 -277 304 -285 21 -19 251
-240 541 -520 325 -315 331 -321 441 -426 l79 -75 85 -13 c81 -12 228 -35 425
-66 50 -8 149 -24 220 -35 142 -22 286 -45 380 -61 118 -21 252 -75 340 -137
280 -198 386 -520 284 -865 -21 -74 -102 -251 -146 -320 -13 -21 -23 -43 -21
-48 3 -10 479 -489 485 -489 2 0 3 21 3 46 0 166 189 296 350 239 23 -8 45
-13 49 -11 3 3 22 34 41 70 l34 66 -25 17 c-81 57 -119 129 -119 228 0 106 37
169 132 233 38 25 50 27 139 27 l97 0 20 50 c37 92 37 89 -18 123 -145 90
-167 295 -44 414 56 55 98 72 184 75 l75 2 17 63 c23 87 22 95 -9 103 -36 9
-105 62 -131 100 -104 154 -29 357 151 410 28 8 63 15 78 15 25 0 28 4 38 63
16 92 16 91 -34 106 -140 41 -219 180 -186 327 22 95 136 194 224 194 34 0 35
1 38 43 2 23 3 61 1 84 -3 40 -5 43 -40 48 -89 15 -169 73 -207 150 -30 61
-28 175 5 239 30 60 88 108 158 132 57 21 57 19 41 111 -11 62 -12 63 -43 63
-195 0 -331 216 -243 386 30 58 93 118 143 134 39 13 39 11 17 102 l-17 70
-39 -5 c-77 -10 -174 29 -238 96 -60 63 -79 191 -41 277 20 47 112 140 138
140 20 0 17 21 -12 93 l-26 64 -79 -5 c-97 -6 -150 12 -208 68 -115 112 -109
290 14 398 l48 43 -34 65 c-18 36 -37 67 -40 70 -4 2 -23 -3 -43 -11 -56 -24
-138 -19 -201 11 -169 79 -206 294 -75 429 l39 40 -46 67 -45 66 -51 -24
c-186 -86 -397 68 -373 273 7 61 26 105 63 144 30 32 25 44 -39 106 l-43 42
-59 -29 c-96 -49 -205 -40 -288 23 -106 81 -135 243 -64 356 l26 40 -53 50
c-48 46 -87 65 -87 41 0 -16 -83 -59 -138 -71 -139 -29 -282 69 -312 217 -9
45 -9 64 5 112 9 31 23 64 31 73 13 15 10 20 -34 51 -89 64 -89 64 -129 23
-67 -69 -167 -97 -256 -71 -154 45 -238 205 -184 352 l15 40 -71 38 c-67 35
-72 37 -84 19 -29 -40 -80 -86 -118 -105 -48 -25 -151 -29 -209 -9 -52 18
-123 85 -149 140 -21 46 -28 128 -15 186 7 30 6 31 -60 54 -37 13 -72 26 -78
28 -6 2 -17 -10 -24 -27 -31 -74 -149 -150 -234 -150 -67 0 -138 32 -193 86
-58 58 -75 103 -77 199 l-1 59 -70 18 c-38 10 -75 16 -81 14 -6 -2 -14 -18
-17 -36 -10 -45 -100 -131 -162 -153 -65 -22 -112 -22 -178 3 -60 23 -126 83
-153 138 -9 19 -18 60 -21 92 l-5 57 -74 12 c-80 13 -94 10 -94 -20 0 -50 -58
-127 -130 -175 -40 -26 -52 -29 -130 -29 -79 0 -91 3 -136 30 -63 39 -121 123
-130 188 l-7 47 -82 0 -82 0 -6 -45z m543 -864 c207 -27 296 -46 397 -87 223
-90 383 -255 462 -478 23 -64 25 -86 25 -226 0 -229 17 -186 -454 -1105 -141
-275 -298 -582 -440 -860 -185 -364 -217 -414 -320 -514 -51 -49 -156 -119
-215 -144 -216 -89 -470 -50 -683 105 -98 71 -1631 1605 -1686 1687 -50 74
-94 167 -122 257 -25 83 -26 286 -1 369 55 184 179 353 341 465 62 42 233 129
362 185 481 206 1036 335 1589 369 155 10 595 -4 745 -23z m2740 -1291 c191
-60 332 -164 541 -396 538 -600 946 -1413 1088 -2164 47 -253 53 -355 26 -495
-33 -171 -93 -286 -214 -405 -97 -97 -192 -152 -326 -191 -104 -30 -310 -33
-460 -6 -194 35 -221 39 -312 53 -51 8 -135 20 -185 28 -51 8 -120 19 -153 25
-33 5 -103 17 -155 25 -259 42 -356 57 -475 76 -71 11 -170 27 -220 35 -49 8
-189 31 -310 51 -271 44 -358 71 -479 148 -280 179 -379 507 -255 846 20 54
98 213 324 655 62 121 206 405 320 630 342 675 362 712 405 772 80 114 195
215 305 270 46 23 156 60 200 67 71 11 270 -3 335 -24z m-1480 -171 c183 -83
217 -323 65 -457 -150 -132 -384 -60 -441 135 -37 126 28 267 148 322 60 27
168 27 228 0z m-4194 -645 c115 -39 187 -126 201 -244 12 -100 -63 -222 -166
-271 -61 -29 -158 -30 -221 -2 -70 31 -134 109 -155 188 -17 62 -17 68 0 133
16 57 27 75 74 123 43 43 69 59 111 71 72 21 96 21 156 2z m-1096 -240 c117
-30 218 -80 319 -159 99 -77 1614 -1604 1656 -1670 104 -160 140 -278 133
-443 -7 -168 -65 -302 -185 -433 -99 -106 -129 -125 -588 -359 -483 -247
-1064 -544 -1337 -684 -272 -139 -355 -167 -514 -174 -141 -5 -224 7 -325 48
-190 77 -338 232 -423 443 -41 102 -58 182 -87 404 -32 241 -32 715 -1 978 48
399 108 672 219 1005 35 105 92 259 117 315 8 17 24 53 36 80 51 116 125 254
168 315 198 279 515 410 812 334z m3725 -1873 c167 -45 293 -130 397 -270 77
-103 137 -281 138 -409 0 -174 -84 -375 -211 -501 -387 -383 -1033 -207 -1178
322 -27 100 -28 243 -2 343 65 252 241 435 491 510 99 30 263 32 365 5z m3485
-996 c97 -49 149 -136 150 -248 0 -84 -29 -147 -95 -205 -87 -76 -194 -89
-302 -36 -94 46 -147 134 -146 244 0 80 19 125 75 186 84 92 207 115 318 59z
m-4463 -981 c188 -39 353 -171 446 -357 54 -108 72 -178 116 -452 23 -137 45
-277 51 -310 10 -62 35 -217 70 -440 49 -311 61 -382 66 -410 3 -16 12 -70 19
-120 8 -49 23 -148 35 -220 20 -119 30 -186 62 -390 21 -138 -6 -325 -65 -457
-69 -153 -203 -289 -358 -362 -137 -64 -341 -91 -508 -66 -880 129 -1802 589
-2463 1229 -139 134 -224 265 -279 426 -21 61 -24 88 -24 220 0 156 3 175 53
290 58 133 160 253 294 342 40 28 138 82 218 123 80 40 249 126 375 190 127
65 403 205 615 313 869 440 856 434 985 456 119 21 169 20 292 -5z m-2301 -69
c93 -28 162 -106 184 -209 45 -218 -182 -396 -385 -300 -101 48 -154 133 -155
247 0 129 69 224 193 263 56 17 103 17 163 -1z m3792 -1927 c81 -41 149 -148
151 -239 2 -61 -26 -133 -71 -184 -138 -156 -382 -114 -462 79 -33 80 -14 206
41 272 30 35 90 75 135 90 57 18 148 10 206 -18z m6416 -3258 c82 -40 147
-108 189 -198 30 -62 32 -75 32 -172 0 -86 -4 -113 -22 -152 -47 -104 -128
-183 -233 -228 -80 -35 -211 -35 -298 0 -116 46 -209 145 -246 264 -27 86 -19
211 19 291 100 210 351 297 559 195z"/>
<path d="M5439 12163 c-24 -4 -27 -10 -33 -59 -3 -31 -15 -73 -26 -94 -28 -56
-103 -116 -165 -135 -67 -19 -86 -19 -153 2 -70 22 -132 78 -165 147 l-26 54
-68 -17 -68 -17 -1 -70 c-1 -81 -18 -127 -69 -182 -120 -134 -339 -110 -428
46 l-22 39 -65 -26 c-71 -29 -67 -19 -54 -122 8 -58 -17 -139 -58 -192 -47
-60 -108 -89 -194 -95 -65 -4 -80 -2 -128 22 -31 15 -71 45 -90 68 l-35 40
-60 -37 c-34 -21 -61 -41 -61 -45 0 -4 8 -22 17 -41 11 -21 17 -60 18 -109 1
-69 4 -80 40 -135 39 -63 430 -465 451 -465 7 0 23 19 37 43 29 48 123 144
181 183 141 94 454 219 721 288 310 81 540 110 870 110 430 0 650 -46 802
-170 23 -19 45 -34 50 -34 16 0 282 543 294 600 10 48 9 63 -6 105 -10 28 -19
78 -20 112 0 34 -3 64 -6 67 -2 2 -32 11 -67 19 l-63 14 -25 -53 c-32 -68 -96
-125 -166 -147 -68 -21 -86 -21 -156 -1 -103 30 -192 148 -192 255 0 23 -5 27
-37 33 -95 15 -123 6 -123 -41 0 -32 -46 -107 -86 -139 -57 -47 -104 -64 -176
-64 -120 0 -219 77 -254 196 l-15 54 -47 -1 c-26 -1 -59 -4 -73 -6z"/>
<path d="M5760 10807 c0 -89 -67 -192 -153 -235 -65 -33 -165 -31 -236 4 -56
28 -114 95 -129 149 -10 36 -25 40 -97 25 l-55 -11 0 -70 c0 -118 -54 -205
-155 -250 -107 -48 -206 -29 -290 56 -27 27 -54 58 -60 67 -9 17 -15 16 -74
-13 -48 -23 -62 -34 -58 -47 30 -103 31 -113 20 -164 l-11 -53 167 -168 167
-168 79 37 c181 82 411 149 615 179 203 30 511 29 635 -1 18 -4 36 24 139 228
66 128 136 265 158 305 43 81 43 83 24 83 -8 0 -17 -14 -20 -32 -4 -18 -22
-54 -41 -79 -89 -122 -286 -136 -393 -30 -43 43 -63 84 -77 151 l-12 55 -71 3
c-70 3 -72 2 -72 -21z"/>
<path d="M8590 11139 c-20 -16 -63 -38 -95 -50 -92 -32 -124 -75 -291 -405
-69 -134 -123 -248 -120 -253 3 -4 24 -11 47 -15 57 -9 163 -63 236 -119 58
-44 179 -172 273 -287 297 -362 537 -834 651 -1280 53 -206 63 -273 63 -415
-1 -127 -3 -146 -27 -208 -15 -37 -27 -69 -27 -71 0 -4 119 -25 250 -45 36 -6
126 -20 200 -32 80 -12 162 -19 201 -16 59 4 71 8 117 44 31 25 71 45 101 53
l51 12 0 51 c0 88 -4 94 -68 102 -105 12 -193 86 -225 188 -21 67 -21 87 0
155 22 70 79 134 147 166 l53 25 -14 63 c-8 34 -16 65 -19 69 -2 4 -30 7 -61
6 -82 -1 -133 17 -186 63 -119 105 -124 276 -12 392 20 20 49 42 64 49 l28 13
-24 60 c-14 34 -27 66 -29 72 -4 8 -17 7 -47 -3 -99 -35 -225 14 -292 111 -39
57 -40 60 -40 144 0 78 3 92 29 135 15 26 44 60 63 76 l36 30 -26 43 c-51 85
-49 84 -93 63 -59 -29 -165 -26 -228 5 -128 65 -182 224 -121 354 14 29 34 61
45 71 28 25 25 33 -25 89 l-43 48 -63 -31 c-237 -118 -476 121 -358 358 l31
63 -48 43 c-27 24 -53 44 -59 44 -5 0 -26 -13 -45 -30z"/>
<path d="M7662 9616 c-51 -100 -92 -185 -92 -189 0 -4 39 -51 86 -105 252
-285 438 -666 514 -1054 9 -47 16 -59 33 -62 80 -16 300 -48 340 -49 l48 -2
18 53 c24 69 89 137 154 160 53 19 56 27 33 102 l-13 45 -79 6 c-116 8 -179
46 -235 144 -33 56 -34 181 -2 241 21 38 78 96 119 120 18 11 18 13 -10 73
-16 33 -32 61 -35 61 -3 0 -24 -7 -46 -15 -96 -34 -210 -3 -278 77 -43 49 -75
121 -76 172 -2 52 32 137 72 182 42 47 42 47 -10 111 l-33 42 -58 -31 c-53
-28 -63 -30 -137 -26 -89 5 -135 27 -191 90 l-31 35 -91 -181z"/>
<path d="M2075 10080 l-37 -61 45 -39 c64 -57 91 -124 85 -216 -4 -55 -11 -83
-32 -118 -50 -86 -164 -145 -255 -131 -98 14 -93 16 -122 -55 l-26 -65 29 -14
c86 -41 142 -137 142 -241 0 -82 -28 -144 -91 -200 -54 -47 -105 -64 -188 -62
l-60 1 -16 -71 -16 -70 54 -25 c68 -33 124 -95 146 -165 21 -67 21 -86 2 -153
-29 -100 -122 -176 -231 -191 -50 -6 -52 -7 -58 -43 -3 -20 -6 -52 -6 -72 0
-35 1 -36 58 -52 260 -72 255 -446 -8 -513 -51 -13 -56 -24 -45 -109 l6 -52
55 -7 c73 -8 122 -35 173 -92 40 -46 71 -120 71 -172 0 -62 -34 -137 -86 -188
-29 -28 -65 -55 -81 -58 -50 -13 -52 -20 -34 -93 l17 -67 69 -1 c48 -1 85 -8
116 -22 47 -21 47 -21 115 -2 37 10 185 78 328 150 144 72 262 132 263 134 2
1 -18 28 -43 61 -86 110 -119 203 -150 424 -24 170 -24 571 0 755 48 373 125
660 256 960 99 229 177 339 295 420 30 21 54 42 53 47 -2 4 -93 98 -203 209
-257 258 -290 282 -401 284 -43 1 -83 8 -104 18 -18 10 -37 17 -41 17 -4 0
-24 -27 -44 -60z"/>
<path d="M3087 9105 c-32 -65 -33 -72 -9 -79 31 -10 95 -80 118 -131 84 -180
-60 -386 -261 -373 l-56 3 -10 -40 c-6 -22 -12 -53 -13 -69 -1 -26 4 -31 43
-44 65 -22 135 -96 155 -163 9 -29 16 -67 16 -84 0 -133 -120 -265 -241 -265
-39 0 -50 -21 -47 -86 l3 -59 42 -7 c175 -29 275 -181 228 -344 -13 -47 -27
-69 -70 -111 -33 -32 -69 -56 -94 -64 -23 -7 -41 -18 -41 -26 0 -7 1 -13 3
-13 2 0 54 26 117 58 495 252 501 255 496 271 -15 49 -26 191 -26 322 0 171
27 391 67 539 14 52 28 109 32 125 11 45 76 213 105 272 14 29 26 59 26 65 0
7 -75 88 -166 179 l-166 166 -44 -9 c-41 -9 -61 -7 -159 18 -16 4 -25 -5 -48
-51z"/>
<path d="M5703 8279 c-131 -25 -273 -139 -333 -265 -106 -222 -31 -494 173
-626 85 -55 132 -70 247 -75 90 -4 114 -2 170 17 137 46 233 130 295 257 36
73 39 85 43 188 3 94 1 119 -18 175 -55 165 -195 294 -358 329 -60 13 -157 13
-219 0z"/>
<path d="M4015 5961 c-82 -43 -161 -83 -174 -90 l-23 -13 37 -36 c21 -21 49
-61 63 -91 32 -70 28 -163 -12 -233 -14 -26 -26 -49 -26 -52 0 -2 23 -23 51
-45 l51 -41 47 40 c146 123 346 76 424 -99 25 -56 26 -141 3 -193 l-16 -37 63
-31 62 -31 15 21 c72 102 137 140 240 140 156 0 281 -132 268 -284 l-4 -54 63
-17 c35 -10 65 -16 67 -14 1 2 15 30 30 61 33 71 92 123 163 145 29 9 53 21
53 27 0 6 -7 54 -16 106 -8 52 -21 137 -29 189 -8 52 -19 97 -25 101 -7 4 -44
13 -83 19 -67 11 -276 70 -322 91 -11 5 -49 21 -85 36 -225 91 -439 225 -632
396 -42 37 -82 68 -90 68 -7 -1 -80 -36 -163 -79z"/>
<path d="M3136 5515 c-17 -9 -132 -68 -256 -131 -124 -63 -251 -135 -282 -159
-47 -37 -58 -52 -74 -101 -10 -32 -33 -77 -51 -101 -37 -48 -37 -48 20 -114
32 -37 40 -42 55 -32 84 59 198 70 280 29 142 -72 192 -223 121 -366 -36 -71
-41 -56 44 -124 l37 -28 31 26 c60 50 109 70 179 70 102 0 197 -60 241 -152
29 -59 32 -169 6 -221 -9 -19 -17 -37 -17 -41 0 -4 28 -24 61 -44 l62 -37 35
42 c104 121 306 119 406 -4 59 -74 76 -161 51 -258 -6 -24 -2 -28 55 -52 34
-15 65 -27 69 -27 3 0 15 15 26 33 87 147 280 179 408 67 64 -56 90 -116 91
-204 l1 -71 50 -11 c86 -21 91 -19 111 31 33 87 149 165 245 165 61 0 140 -35
186 -82 52 -55 71 -93 79 -161 l6 -55 46 -6 c96 -13 98 -12 116 52 10 37 30
75 53 102 l38 44 -1 95 c-1 53 -9 143 -19 201 -9 58 -23 143 -30 190 -23 145
-37 225 -39 227 -2 2 -36 -9 -77 -24 -67 -24 -87 -27 -209 -27 -176 1 -341 34
-627 129 -328 109 -641 271 -933 484 -159 116 -351 288 -416 373 -44 57 -114
181 -114 203 0 21 -21 85 -28 85 -4 0 -20 -7 -36 -15z"/>
<path d="M9048 6348 l-4 -113 220 -222 221 -223 10 48 c36 156 195 246 352
197 22 -7 28 1 67 97 14 35 14 37 -5 43 -29 10 -86 62 -119 110 -23 33 -41 46
-87 63 -61 22 -169 44 -293 62 -41 5 -131 19 -200 30 -69 11 -132 20 -142 20
-14 0 -17 -16 -20 -112z"/>
<path d="M7243 4563 c-105 -4 -101 0 -84 -90 5 -26 19 -111 31 -188 36 -238
50 -308 75 -375 21 -55 32 -69 70 -94 25 -15 60 -49 77 -75 17 -25 33 -48 34
-50 2 -2 34 9 72 25 l68 28 -14 40 c-49 141 66 316 220 335 l52 6 -221 223
c-206 208 -223 222 -254 220 -19 -1 -76 -4 -126 -5z"/>
</g>
</svg>
