<?xml version="1.0" standalone="no"?>
<!DOCTYPE svg PUBLIC "-//W3C//DTD SVG 20010904//EN"
 "http://www.w3.org/TR/2001/REC-SVG-20010904/DTD/svg10.dtd">
<svg version="1.0" xmlns="http://www.w3.org/2000/svg"
 width="512.000000pt" height="512.000000pt" viewBox="0 0 512.000000 512.000000"
 preserveAspectRatio="xMidYMid meet">

<g transform="translate(0.000000,512.000000) scale(0.100000,-0.100000)"
fill="#000000" stroke="none">
<path d="M2370 5114 c-643 -58 -1188 -311 -1627 -755 -398 -403 -631 -871
-720 -1449 -24 -161 -24 -539 0 -700 83 -535 303 -1004 646 -1372 423 -456
922 -719 1541 -815 161 -24 539 -24 700 0 619 96 1118 359 1541 815 343 368
563 837 646 1372 24 161 24 539 0 700 -96 619 -359 1118 -815 1541 -365 340
-840 564 -1362 644 -101 15 -455 27 -550 19z m418 -349 c181 -19 302 -45 467
-100 584 -195 1049 -607 1312 -1165 107 -225 170 -454 198 -713 19 -175 19
-275 0 -455 -19 -181 -45 -302 -100 -467 -153 -457 -424 -824 -828 -1118 -213
-155 -538 -298 -809 -356 -119 -25 -353 -51 -470 -51 -113 0 -337 25 -463 51
-273 57 -601 202 -820 362 -398 292 -668 658 -820 1112 -55 165 -81 286 -100
467 -19 180 -19 280 0 455 20 181 47 309 100 468 153 459 434 835 835 1122
425 303 968 444 1498 388z"/>
<path d="M2293 4623 c-29 -6 -29 -7 -49 -448 -9 -198 -17 -361 -19 -363 -1 -2
-100 149 -220 335 -119 186 -218 339 -220 341 -4 5 -106 -41 -103 -48 2 -4
123 -193 270 -421 l267 -415 -11 -204 c-5 -113 -11 -206 -13 -208 -1 -1 -85
40 -186 92 l-183 95 -226 437 c-124 241 -229 439 -235 441 -5 1 -27 -12 -49
-30 l-39 -33 165 -319 c91 -176 175 -339 187 -363 l22 -43 -53 27 c-29 15
-192 99 -363 187 l-309 160 -33 -39 c-18 -22 -31 -43 -30 -49 2 -5 200 -112
441 -236 l437 -225 95 -183 c52 -101 93 -185 92 -186 -2 -2 -95 -8 -208 -13
l-204 -11 -415 267 c-228 147 -417 268 -421 270 -7 3 -53 -99 -48 -103 2 -2
156 -101 343 -221 315 -203 337 -219 305 -222 -19 -1 -200 -11 -402 -21 -202
-9 -370 -20 -373 -23 -3 -3 -8 -28 -12 -57 l-6 -51 39 1 c21 0 246 10 499 23
l460 22 172 -110 c95 -61 173 -113 173 -116 0 -3 -78 -55 -173 -116 l-172
-110 -460 22 c-253 13 -477 23 -499 23 l-39 1 7 -52 c4 -29 9 -55 12 -57 2 -2
172 -13 377 -22 204 -10 386 -20 402 -21 26 -3 -17 -33 -310 -222 -187 -120
-341 -219 -343 -221 -5 -4 41 -106 48 -103 4 2 193 123 421 270 l415 267 204
-11 c113 -5 206 -11 208 -13 1 -1 -40 -85 -92 -186 l-95 -183 -437 -225 c-241
-124 -439 -230 -441 -236 -1 -5 12 -27 30 -49 l33 -39 319 165 c176 91 339
175 363 187 l43 22 -17 -33 c-9 -18 -93 -181 -187 -362 l-170 -330 39 -33 c21
-18 44 -31 49 -30 6 2 111 200 235 441 l226 437 183 95 c101 52 185 94 186 92
2 -2 8 -95 13 -208 l11 -204 -267 -415 c-147 -228 -268 -417 -270 -421 -3 -7
99 -53 103 -48 2 2 101 156 221 343 203 315 219 337 222 305 1 -19 11 -200 21
-402 10 -203 20 -370 22 -372 2 -3 28 -8 57 -12 l52 -7 0 34 c-1 19 -11 243
-24 499 l-23 464 111 173 c61 95 113 173 116 173 3 0 55 -78 116 -173 l111
-173 -23 -459 c-13 -253 -23 -477 -23 -499 l-1 -39 52 7 c29 4 55 9 57 12 2 2
13 172 22 377 10 204 20 386 21 402 3 26 33 -17 222 -310 120 -187 219 -341
221 -343 4 -5 106 41 103 48 -2 4 -123 193 -270 421 l-267 415 11 204 c5 113
11 206 13 208 1 1 85 -40 186 -92 l183 -95 225 -437 c124 -241 231 -439 236
-441 6 -1 28 12 49 30 l39 33 -160 310 c-88 170 -172 333 -187 362 l-27 53 53
-27 c29 -15 192 -99 362 -187 l310 -160 33 39 c18 21 31 44 30 49 -2 6 -200
112 -441 236 l-437 225 -95 183 c-52 101 -94 185 -92 186 2 2 95 8 208 13
l204 11 415 -267 c228 -147 417 -268 421 -270 7 -3 53 99 48 103 -2 2 -156
101 -343 221 -293 189 -336 219 -310 222 17 1 198 11 402 21 205 9 375 20 377
22 3 2 8 28 12 57 l7 52 -39 -1 c-22 0 -246 -10 -499 -23 l-459 -23 -173 111
c-95 61 -173 113 -173 116 0 3 78 55 173 116 l173 111 464 -23 c256 -13 480
-23 499 -24 l34 0 -7 52 c-4 29 -9 55 -12 57 -2 2 -169 12 -372 22 -202 10
-383 20 -402 21 -32 3 -10 19 305 222 187 120 341 219 343 221 5 4 -41 106
-48 103 -4 -2 -193 -123 -421 -270 l-415 -267 -204 11 c-113 5 -206 11 -208
13 -2 1 40 85 92 186 l95 183 437 226 c241 124 439 230 441 235 1 6 -12 28
-30 49 l-33 39 -330 -170 c-181 -94 -344 -178 -362 -187 l-33 -17 22 43 c12
24 96 187 187 363 l165 319 -39 33 c-22 18 -43 31 -49 30 -5 -2 -112 -200
-236 -441 l-225 -437 -183 -95 c-101 -52 -185 -93 -186 -92 -2 2 -8 95 -13
208 l-11 204 267 415 c147 228 268 417 270 421 3 7 -99 53 -103 48 -2 -2 -101
-156 -221 -343 -189 -293 -219 -336 -222 -310 -1 17 -11 198 -21 402 -9 205
-20 375 -22 377 -2 3 -28 8 -57 12 l-52 7 1 -39 c0 -22 10 -246 23 -499 l22
-460 -110 -172 c-61 -95 -113 -173 -116 -173 -3 0 -55 78 -116 173 l-110 172
22 460 c30 599 31 535 -8 534 -18 -1 -43 -4 -55 -6z m121 -1322 l77 -121 -32
-54 -33 -54 -59 30 -60 30 7 90 c3 50 6 118 6 150 0 33 4 57 9 54 4 -3 43 -59
85 -125z m390 -23 l7 -147 -59 -30 -58 -29 -33 54 c-19 32 -29 59 -25 67 43
69 156 238 158 236 2 -2 6 -70 10 -151z m-616 -278 l-3 -65 -65 -3 -65 -3 -67
136 -68 135 135 -68 136 -67 -3 -65z m944 65 l-67 -136 -65 3 -65 3 -3 65 -3
65 133 67 c73 37 134 67 135 67 2 1 -27 -60 -65 -134z m-554 -20 c16 -35 16
-35 -18 -35 -16 0 -30 2 -30 5 0 11 24 55 30 55 4 0 12 -11 18 -25z m-243 -57
c30 -13 32 -24 6 -38 -32 -16 -41 -12 -41 20 0 34 0 34 35 18z m485 -18 c0
-32 -9 -36 -41 -20 -25 14 -24 24 4 38 33 16 37 15 37 -18z m-640 -161 c0 -16
-20 -49 -29 -49 -7 0 -31 43 -31 55 0 3 14 5 30 5 17 0 30 -5 30 -11z m820 6
c0 -12 -24 -55 -31 -55 -9 0 -29 33 -29 49 0 6 14 11 30 11 17 0 30 -2 30 -5z
m-981 -63 l29 -58 -54 -33 c-32 -19 -59 -29 -67 -25 -6 5 -64 42 -127 84
l-115 75 95 6 c52 3 121 6 152 7 l58 2 29 -58z m1353 48 c33 0 57 -4 54 -9 -3
-4 -60 -43 -126 -85 l-120 -78 -53 32 c-28 18 -53 33 -54 34 -2 2 11 29 29 61
l31 58 90 -7 c50 -3 117 -6 149 -6z m-696 -56 c68 -42 107 -117 102 -196 -12
-168 -191 -261 -334 -172 -68 42 -107 117 -102 196 12 168 191 261 334 172z
m-566 -184 c0 -34 0 -34 -35 -18 -31 14 -32 22 -2 36 33 16 37 15 37 -18z
m935 18 c14 -6 25 -14 25 -18 0 -6 -44 -30 -55 -30 -3 0 -5 14 -5 30 0 34 0
34 35 18z m-1050 -120 l53 -32 -29 -58 -30 -59 -147 7 c-81 4 -149 8 -151 10
-3 3 239 163 247 164 2 0 28 -14 57 -32z m1319 -52 c65 -43 116 -79 115 -80
-2 -2 -70 -6 -151 -10 l-147 -7 -30 58 -29 58 51 32 c29 18 57 31 62 29 6 -2
64 -38 129 -80z m-1144 -65 c16 -32 12 -41 -20 -41 -34 0 -34 0 -18 35 13 30
24 32 38 6z m818 -6 c16 -35 16 -35 -18 -35 -32 0 -36 9 -20 41 14 26 25 24
38 -6z m-800 -215 l3 -65 -136 -67 -135 -68 68 135 67 136 65 -3 65 -3 3 -65z
m945 -65 l67 -135 -135 67 -135 68 0 61 c0 33 3 64 7 67 3 4 34 7 67 7 l61 0
68 -135z m-792 115 c26 -14 24 -25 -6 -38 -35 -16 -35 -16 -35 18 0 32 9 36
41 20z m479 -20 c0 -34 0 -34 -35 -18 -29 13 -32 23 -7 37 30 18 42 12 42 -19z
m-230 -45 c0 -11 -24 -55 -30 -55 -6 0 -30 44 -30 55 0 3 14 5 30 5 17 0 30
-2 30 -5z m-132 -110 l33 -55 -77 -121 c-42 -66 -81 -122 -85 -125 -5 -3 -9
21 -9 54 0 32 -3 99 -6 149 l-7 90 54 31 c30 16 56 30 59 31 3 0 20 -24 38
-54z m348 -97 c-3 -50 -6 -118 -6 -150 0 -33 -4 -57 -9 -54 -4 3 -43 59 -85
125 l-77 121 32 54 33 54 59 -30 60 -30 -7 -90z"/>
</g>
</svg>
